<?xml version="1.0" standalone="no"?>
<!DOCTYPE svg PUBLIC "-//W3C//DTD SVG 20010904//EN"
 "http://www.w3.org/TR/2001/REC-SVG-20010904/DTD/svg10.dtd">
<svg version="1.0" xmlns="http://www.w3.org/2000/svg"
 width="250.000000pt" height="243.000000pt" viewBox="0 0 250.000000 243.000000"
 preserveAspectRatio="xMidYMid meet">
<g transform="translate(0.000000,243.000000) scale(0.100000,-0.100000)"
fill="#41aa65" stroke="none">
<path d="M1891 2144 c-66 -61 -78 -94 -40 -115 31 -16 67 13 103 84 27 53 29
87 7 87 -5 0 -37 -25 -70 -56z m-1 -49 c-7 -8 -16 -15 -21 -15 -13 0 -11 24 3
38 18 18 35 -3 18 -23z"/>
<path d="M920 2101 c40 -13 90 -41 90 -51 0 -12 -45 -24 -59 -16 -5 3 -11 0
-14 -6 -3 -10 -8 -9 -22 2 -10 8 -16 10 -12 3 4 -6 3 -14 -3 -18 -6 -4 -8 -11
-5 -16 4 -5 -1 -9 -9 -9 -9 0 -16 -7 -16 -15 0 -15 -14 -20 -92 -30 -26 -3
-50 -10 -53 -15 -3 -4 -33 -11 -67 -15 l-63 -8 43 -12 c40 -12 46 -11 87 12
25 13 50 23 56 21 6 -2 -37 -34 -95 -72 -95 -61 -153 -106 -97 -76 17 9 26 9
37 -1 11 -9 14 -8 14 8 0 22 39 63 60 63 7 0 22 8 33 18 20 16 20 16 14 -8 -6
-23 -4 -22 22 9 21 26 36 34 67 37 l39 3 -25 -20 c-20 -15 -21 -18 -5 -12 20
6 20 6 2 -15 -11 -11 -16 -25 -13 -31 4 -5 2 -12 -3 -16 -6 -3 -7 -13 -4 -21
4 -10 -2 -17 -15 -21 -11 -3 -23 -11 -25 -17 -3 -7 -30 -25 -61 -40 -31 -15
-56 -31 -56 -36 0 -4 -8 -6 -18 -3 -10 2 -24 -3 -31 -11 -8 -9 -20 -16 -28
-16 -7 0 -25 -7 -38 -16 -13 -9 -29 -13 -35 -9 -5 3 -13 -1 -16 -10 -4 -9 -13
-14 -21 -11 -14 6 -52 -9 -63 -24 -6 -8 -119 -70 -128 -70 -3 0 9 16 28 35 18
19 38 31 43 28 6 -3 7 -1 4 4 -4 6 10 26 31 44 30 27 38 30 40 16 2 -9 7 -17
12 -17 5 0 7 7 4 15 -7 18 33 76 51 73 8 -2 13 0 12 4 -1 3 9 19 23 34 38 42
-61 -34 -132 -102 -56 -52 -77 -67 -62 -42 4 7 3 8 -4 4 -6 -4 -9 -13 -6 -21
5 -13 -32 -42 -49 -37 -5 1 -6 -2 -3 -7 8 -12 -11 -24 -41 -27 -19 -2 -23 2
-23 26 0 28 10 49 67 148 32 54 16 55 -20 0 -28 -44 -167 -388 -167 -415 0 -8
20 9 44 39 61 75 141 109 325 140 53 9 138 56 176 98 10 11 25 20 32 20 11 0
5 -18 -20 -62 -68 -122 -87 -195 -87 -327 0 -101 4 -133 29 -217 54 -188 124
-307 256 -439 l85 -85 -35 0 c-24 0 -45 -9 -68 -30 -25 -22 -45 -30 -71 -30
-33 0 -36 2 -30 24 5 21 1 24 -29 30 -19 3 -41 4 -48 2 -8 -2 -26 -7 -41 -10
-28 -6 -58 -31 -58 -47 0 -5 11 -19 25 -31 19 -17 25 -31 25 -65 0 -33 6 -48
24 -64 13 -12 27 -32 30 -45 10 -40 86 -68 181 -67 44 0 100 6 125 13 25 7 81
16 125 20 104 10 329 56 366 75 33 17 37 40 13 67 -14 14 -14 18 -3 22 63 18
97 30 189 66 121 48 156 58 146 41 -14 -22 46 -33 154 -28 119 6 186 26 230
67 66 61 23 118 -96 129 l-62 6 57 96 c31 52 79 147 106 210 l49 114 -1 135
c-1 96 -5 147 -17 178 l-15 42 29 27 c17 15 30 36 30 50 0 12 9 32 20 43 27
27 26 50 -2 50 -17 0 -19 -3 -9 -9 9 -6 10 -11 2 -15 -6 -4 -16 -4 -22 0 -8 5
-10 -1 -7 -19 4 -23 1 -27 -26 -33 -17 -4 -34 -7 -38 -6 -4 1 -13 -8 -19 -20
-12 -22 -8 -79 12 -173 24 -118 4 -202 -106 -426 -13 -26 -26 -61 -30 -77 -7
-34 -54 -85 -97 -108 -16 -8 -28 -21 -28 -29 0 -8 -11 -17 -25 -21 -14 -3 -25
-10 -25 -15 0 -11 -65 -60 -84 -63 -9 -1 -28 -13 -43 -27 -16 -14 -41 -33 -56
-43 -24 -15 -29 -15 -42 -2 -22 21 -19 32 18 57 17 13 34 27 35 31 2 4 10 8
18 8 8 0 14 5 14 11 0 6 9 9 19 6 14 -3 18 -1 14 9 -4 10 3 14 21 14 33 0 42
-3 38 -13 -8 -25 24 13 73 88 60 90 62 94 106 263 16 62 36 120 44 129 12 12
16 35 14 102 -1 76 -5 95 -36 161 -42 90 -100 172 -181 259 -45 48 -64 62 -79
57 -10 -3 -28 0 -39 9 -10 8 -23 14 -29 15 -5 0 24 -22 65 -49 81 -52 160
-130 160 -158 0 -10 12 -46 27 -81 27 -65 26 -85 -4 -61 -16 12 -17 12 -7 -1
19 -25 10 -267 -11 -315 -9 -22 -20 -62 -22 -88 -5 -38 -9 -47 -21 -42 -12 4
-13 3 -3 -9 10 -12 7 -15 -16 -18 -23 -2 -28 -8 -27 -28 1 -23 -47 -80 -68
-80 -4 0 -8 -7 -8 -16 0 -8 -4 -12 -10 -9 -5 3 -10 1 -10 -4 0 -19 -34 -51
-54 -51 -11 0 -16 -3 -13 -6 5 -5 -29 -44 -38 -44 -1 0 -39 -13 -85 -30 -45
-16 -86 -27 -91 -24 -5 3 -9 1 -9 -3 0 -12 -137 -8 -195 6 -27 7 -65 15 -82
18 -18 3 -33 9 -33 15 0 5 -5 6 -12 2 -8 -5 -9 -2 -5 10 6 14 3 16 -13 11 -13
-4 -22 -1 -26 9 -3 9 -12 16 -20 16 -8 0 -13 5 -11 12 1 7 -3 12 -8 13 -6 0
-22 10 -35 23 -14 12 -34 25 -46 28 -12 3 -27 16 -34 30 -8 13 -17 24 -22 24
-4 0 -8 7 -8 15 0 8 -18 28 -40 46 -43 34 -120 142 -120 168 0 9 -6 27 -13 41
-16 30 -22 97 -21 211 2 102 31 201 81 270 18 26 33 51 33 57 0 6 10 17 23 23
12 7 42 27 66 45 24 19 47 31 52 28 5 -3 9 0 9 5 0 6 11 11 24 11 13 0 26 7
30 15 3 8 15 15 26 15 11 0 20 4 20 9 0 5 15 11 33 14 17 4 46 9 64 13 25 5
33 2 42 -14 7 -13 26 -22 58 -27 54 -8 78 -18 111 -49 18 -16 22 -17 17 -4 -9
22 42 32 128 26 57 -4 60 -4 32 8 -16 7 -35 13 -42 14 -24 0 -23 20 1 31 26
12 27 33 2 23 -20 -8 -32 17 -15 30 8 6 13 18 12 26 -10 45 130 66 231 35 66
-20 80 -18 29 5 -68 30 -147 41 -206 28 -68 -14 -144 -48 -184 -82 -21 -17
-39 -25 -51 -22 -20 7 -82 98 -136 203 -40 76 -74 108 -105 98 -12 -3 -34 4
-56 20 -29 19 -50 25 -89 24 -39 -1 -45 -2 -26 -8z m-23 -128 c-4 -3 -10 -3
-14 0 -3 4 0 7 7 7 7 0 10 -3 7 -7z m282 -70 c42 -50 49 -63 30 -63 -17 0 -89
76 -89 94 0 27 17 18 59 -31z m-1 -55 c43 -35 70 -74 59 -85 -4 -4 -31 1 -61
10 -29 9 -82 17 -117 18 l-64 1 52 23 c30 14 54 32 58 44 9 29 26 26 73 -11z
m1002 -1313 c10 -13 9 -15 -8 -15 -22 0 -36 13 -25 24 10 10 20 7 33 -9z
m-560 -65 c0 -5 -5 -10 -11 -10 -5 0 -7 5 -4 10 3 6 8 10 11 10 2 0 4 -4 4
-10z m507 -38 c-16 -15 -47 -11 -47 7 0 10 39 20 53 13 5 -2 2 -11 -6 -20z
m-526 8 c16 0 9 -19 -11 -30 -14 -7 -26 -8 -38 -1 -9 6 -11 11 -4 11 6 0 12 7
12 16 0 11 5 14 16 10 9 -3 20 -6 25 -6z m-944 -26 c-3 -3 -12 -4 -19 -1 -8 3
-5 6 6 6 11 1 17 -2 13 -5z m850 0 c-3 -3 -12 -4 -19 -1 -8 3 -5 6 6 6 11 1
17 -2 13 -5z m-10 -21 c-4 -3 -10 -3 -14 0 -3 4 0 7 7 7 7 0 10 -3 7 -7z
m-680 -170 c3 -7 -7 -15 -20 -18 -28 -8 -71 11 -61 26 8 14 76 7 81 -8z"/>
<path d="M798 2093 c7 -3 16 -2 19 1 4 3 -2 6 -13 5 -11 0 -14 -3 -6 -6z"/>
<path d="M763 2083 c4 -3 10 -3 14 0 3 4 0 7 -7 7 -7 0 -10 -3 -7 -7z"/>
<path d="M1660 2076 c0 -9 7 -16 16 -16 17 0 14 22 -4 28 -7 2 -12 -3 -12 -12z"/>
<path d="M703 2063 c4 -3 10 -3 14 0 3 4 0 7 -7 7 -7 0 -10 -3 -7 -7z"/>
<path d="M1777 1952 c-23 -25 -22 -78 0 -87 24 -9 75 48 71 78 -4 29 -48 35
-71 9z m19 -28 c-3 -9 -6 -20 -6 -25 0 -5 -4 -9 -10 -9 -11 0 -14 33 -3 43 12
13 25 7 19 -9z"/>
<path d="M673 1933 c4 -3 10 -3 14 0 3 4 0 7 -7 7 -7 0 -10 -3 -7 -7z"/>
<path d="M2000 1922 c0 -24 8 -32 26 -25 22 8 17 43 -6 43 -13 0 -20 -7 -20
-18z"/>
<path d="M415 1868 l-40 -43 43 40 c39 36 47 45 39 45 -2 0 -21 -19 -42 -42z"/>
<path d="M580 1823 c-14 -10 -34 -19 -45 -20 -11 -2 -33 -7 -50 -12 -26 -9
-24 -9 19 -7 35 3 58 11 80 29 35 30 33 36 -4 10z"/>
<path d="M2277 1809 c-28 -40 15 -96 60 -78 26 9 41 55 26 78 -16 26 -68 26
-86 0z m33 1 c0 -5 -4 -10 -10 -10 -5 0 -10 5 -10 10 0 6 5 10 10 10 6 0 10
-4 10 -10z"/>
<path d="M730 1810 c0 -7 3 -10 7 -7 3 4 3 10 0 14 -4 3 -7 0 -7 -7z"/>
<path d="M470 1736 c-38 -25 -68 -56 -54 -56 5 0 29 18 54 40 51 45 51 49 0
16z"/>
<path d="M621 1744 c0 -11 3 -14 6 -6 3 7 2 16 -1 19 -3 4 -6 -2 -5 -13z"/>
<path d="M2167 1724 c-13 -14 -7 -43 12 -53 24 -13 55 8 50 35 -4 19 -48 32
-62 18z m30 -11 c-4 -3 -10 -3 -14 0 -3 4 0 7 7 7 7 0 10 -3 7 -7z"/>
<path d="M350 1656 c0 -2 7 -6 15 -10 8 -3 15 -1 15 4 0 6 -7 10 -15 10 -8 0
-15 -2 -15 -4z"/>
<path d="M403 1603 c4 -3 10 -3 14 0 3 4 0 7 -7 7 -7 0 -10 -3 -7 -7z"/>
<path d="M2343 1593 c4 -3 10 -3 14 0 3 4 0 7 -7 7 -7 0 -10 -3 -7 -7z"/>
<path d="M374 1055 c-8 -20 4 -35 27 -35 22 0 25 16 5 36 -18 18 -25 18 -32
-1z"/>
<path d="M2303 733 c4 -3 10 -3 14 0 3 4 0 7 -7 7 -7 0 -10 -3 -7 -7z"/>
<path d="M496 721 c-9 -15 23 -36 36 -23 5 5 7 15 4 21 -9 13 -33 14 -40 2z"/>
<path d="M2160 659 c0 -5 5 -7 10 -4 6 3 10 8 10 11 0 2 -4 4 -10 4 -5 0 -10
-5 -10 -11z"/>
<path d="M387 612 c-20 -22 -22 -53 -5 -70 19 -19 55 -14 72 10 21 29 21 52 0
44 -23 -9 -37 3 -23 20 18 22 -24 18 -44 -4z"/>
<path d="M550 535 c0 -8 7 -15 15 -15 8 0 15 7 15 15 0 8 -7 15 -15 15 -8 0
-15 -7 -15 -15z"/>
<path d="M1660 450 c0 -7 3 -10 7 -7 3 4 3 10 0 14 -4 3 -7 0 -7 -7z"/>
</g>
</svg>
