<svg version="1.0" xmlns="http://www.w3.org/2000/svg" width="250.000000pt" height="243.000000pt" viewBox="0 0 250.000000 243.000000" preserveAspectRatio="xMidYMid meet" style="width: 250px; height: auto;"> <g transform="translate(0.000000,243.000000) scale(0.050000,-0.050000)" fill="#41aa65" stroke="none"> <path d="M0 2430 l0 -2430 2500 0 2500 0 0 2418 c0 2186 -3 2419 -32 2430 -17 7 -1142 12 -2500 12 l-2468 0 0 -2430z m3960 1937 c0 -138 -127 -327 -220 -327 -132 0 -116 123 34 260 110 101 186 128 186 67z m-1882 -194 c39 -37 67 -46 114 -39 74 12 137 -53 232 -242 64 -128 203 -342 234 -361 9 -6 75 28 145 75 263 176 594 199 816 55 60 -38 1 -44 -113 -10 -166 49 -361 49 -437 0 -58 -38 -58 -39 -14 -50 44 -11 44 -12 -15 -38 -72 -31 -78 -63 -13 -63 75 0 79 -26 10 -62 l-65 -33 109 -32 c189 -57 174 -68 -74 -58 l-237 10 38 -42 c51 -58 9 -55 -61 4 -84 69 -137 93 -208 93 -38 0 -86 19 -121 49 -50 42 -66 46 -123 28 -36 -11 -78 -22 -95 -24 -16 -1 -37 -14 -46 -28 -9 -14 -30 -25 -46 -25 -17 0 -45 -14 -62 -31 -17 -17 -46 -25 -68 -18 -21 6 -38 2 -38 -10 0 -11 -12 -21 -27 -21 -15 0 -58 -27 -95 -60 -38 -33 -79 -60 -93 -60 -14 0 -25 -10 -25 -23 0 -13 -6 -18 -13 -10 -12 12 -45 -32 -79 -107 -8 -16 -30 -48 -49 -70 -255 -290 -171 -1036 150 -1324 61 -55 111 -110 111 -123 0 -13 14 -23 31 -23 17 0 26 -9 18 -21 -14 -23 25 -79 55 -79 10 0 12 11 4 25 -8 14 12 0 45 -30 33 -30 67 -55 78 -55 10 0 53 -38 96 -85 43 -47 72 -74 64 -60 -7 14 -5 25 5 25 28 0 108 -75 90 -85 -9 -5 -5 -6 9 -2 13 3 60 -7 103 -22 43 -15 83 -23 90 -17 6 7 24 1 39 -12 79 -65 524 2 641 97 22 17 32 20 24 6 -12 -20 -4 -20 40 -1 l54 25 -48 14 -48 13 46 2 c69 3 231 114 212 146 -6 9 5 16 23 16 21 0 29 11 22 30 -8 20 1 30 28 30 21 0 39 9 39 20 0 11 13 20 28 20 18 0 25 14 18 40 -6 22 2 55 17 74 15 19 17 28 3 20 -13 -8 -29 -6 -36 6 -13 20 12 27 75 21 20 -2 43 16 54 43 10 25 19 35 20 21 3 -63 34 -16 38 58 3 46 14 100 25 120 12 23 12 37 0 37 -10 0 -15 16 -12 35 4 19 8 44 10 55 1 11 11 2 20 -20 15 -34 17 -35 19 -5 0 19 8 35 16 35 8 0 15 27 15 60 0 33 -4 60 -10 60 -5 0 -11 27 -12 60 -1 33 5 60 14 60 10 0 8 25 -4 55 -14 38 -14 56 1 61 11 4 21 21 21 37 0 16 -10 23 -22 16 -15 -10 -18 5 -9 47 8 34 4 80 -8 103 -27 49 -16 53 29 9 54 -55 52 -21 -10 123 -32 77 -59 153 -59 171 -1 45 -210 234 -362 327 -86 52 -118 81 -95 86 18 4 55 -7 82 -24 27 -18 64 -26 83 -19 54 21 491 -479 491 -561 0 -6 23 -58 50 -115 60 -123 76 -502 23 -522 -16 -6 -50 -102 -80 -228 -68 -285 -98 -366 -181 -492 -102 -153 -212 -276 -199 -220 10 40 6 42 -46 28 -31 -8 -57 -25 -57 -37 0 -12 -8 -29 -18 -38 -11 -10 -12 -7 -4 8 9 15 3 25 -15 25 -16 0 -33 -7 -36 -16 -4 -9 -50 -45 -102 -81 -102 -70 -112 -89 -65 -136 27 -27 30 -26 30 7 1 30 4 31 20 6 16 -25 19 -25 20 -2 0 16 6 23 13 16 7 -7 49 16 93 51 44 35 92 65 106 67 35 5 168 109 168 130 0 10 11 18 26 18 14 0 48 25 76 55 28 30 93 90 143 133 63 53 96 99 104 144 7 37 53 155 103 262 50 108 103 223 118 256 62 140 77 299 42 470 -48 239 -38 466 19 419 37 -31 134 -2 120 36 -19 48 45 128 95 121 63 -9 65 -68 3 -125 -34 -32 -49 -62 -41 -82 8 -21 -10 -53 -50 -91 l-63 -59 32 -116 c41 -144 44 -501 6 -625 -52 -167 -216 -515 -312 -661 l-97 -147 147 -11 c414 -31 275 -342 -176 -395 -233 -27 -435 -5 -435 49 0 22 -10 27 -35 16 -19 -8 -104 -40 -189 -71 -85 -31 -191 -75 -235 -97 -43 -23 -100 -41 -125 -41 -79 -1 -100 -27 -54 -67 114 -97 -235 -225 -772 -282 -66 -7 -191 -27 -279 -44 -268 -53 -520 -8 -580 103 -11 22 -47 70 -78 108 -45 54 -54 80 -45 131 10 51 3 73 -38 111 -76 72 -66 129 30 168 147 58 339 33 281 -36 -28 -35 -22 -38 75 -32 39 2 85 23 114 52 35 35 70 48 129 48 l81 0 -162 154 c-536 513 -745 1317 -479 1846 88 173 159 291 172 283 7 -3 16 -1 21 5 4 7 2 8 -5 2 -7 -5 -26 1 -41 14 -16 12 -25 14 -22 3 19 -61 -314 -286 -440 -297 -289 -25 -503 -120 -626 -275 -152 -193 -155 -136 -13 215 48 121 113 284 143 363 51 135 144 285 177 286 34 2 10 -69 -64 -192 -101 -167 -138 -332 -57 -251 32 32 62 31 44 -1 -8 -14 75 61 184 166 109 104 232 216 273 247 41 31 70 64 65 73 -6 8 1 21 15 27 14 6 -33 6 -105 0 -173 -16 -139 25 46 56 73 12 129 28 124 37 -6 8 10 20 35 26 63 16 198 118 145 110 -22 -4 -44 -12 -50 -18 -5 -6 -25 5 -44 24 -32 33 -31 37 25 65 33 16 55 21 49 12 -6 -10 6 -16 27 -15 21 2 35 13 30 25 -5 15 29 23 101 24 191 2 294 24 288 62 -4 20 5 32 21 28 18 -4 24 6 16 25 -7 20 0 31 20 31 23 0 19 10 -16 39 -26 22 -38 40 -26 40 12 1 31 -9 44 -22 25 -25 135 -39 189 -24 59 16 17 60 -94 98 -117 40 -141 37 -435 -49 -164 -48 -172 -37 -24 31 211 97 554 107 647 20z m1301 -2 c31 -37 11 -71 -40 -71 -28 0 -39 14 -39 50 0 56 41 67 79 21z m321 -251 c40 -74 -58 -209 -144 -197 -40 6 -46 18 -43 86 4 125 137 204 187 111z m390 -80 c0 -36 -12 -52 -42 -56 -47 -7 -74 37 -55 87 20 52 97 27 97 -31z m-3236 -116 c-70 -70 -114 -101 -114 -82 0 38 196 228 215 209 7 -7 -38 -64 -101 -127z m3862 -85 c55 -51 55 -79 3 -146 -50 -63 -104 -68 -159 -13 -113 113 39 268 156 159z m-3687 -136 c-10 -10 -71 -59 -134 -109 -63 -51 -168 -149 -234 -218 -66 -69 -120 -119 -120 -110 -1 9 41 60 92 115 93 100 93 115 -2 79 -28 -10 -51 -12 -51 -5 0 15 155 85 188 85 9 0 52 37 94 82 43 46 78 76 78 66 0 -9 11 -5 24 8 13 13 37 24 54 24 18 0 22 -7 11 -17z m3431 -63 c30 -56 -7 -120 -70 -120 -28 0 -58 17 -70 40 -30 56 7 120 70 120 28 0 58 -17 70 -40z m280 -248 c0 -38 -54 -56 -67 -23 -12 32 3 51 40 51 15 0 27 -13 27 -28z m-3903 -1050 c35 -22 23 -82 -23 -110 -50 -30 -102 35 -73 91 22 40 53 46 96 19z m3818 -677 c5 -15 -9 -25 -33 -25 -25 0 -42 13 -42 31 0 37 62 32 75 -6z m-3573 -17 c22 -28 21 -37 -12 -60 -46 -34 -104 7 -83 60 15 41 61 41 95 0z m-157 -216 c55 -83 -33 -211 -125 -182 -87 28 -91 194 -6 216 46 12 112 -5 131 -34z m251 -157 c8 -42 -50 -69 -80 -39 -30 30 -3 88 39 80 19 -3 38 -22 41 -41z" stroke-width="1"></path> <path d="M2001 3881 c-16 -10 -37 -14 -46 -8 -36 22 -95 -59 -95 -130 0 -77 -71 -243 -104 -243 -11 0 -15 -13 -9 -29 7 -19 1 -25 -16 -19 -15 6 -32 3 -38 -7 -21 -34 79 -13 162 34 87 49 103 72 62 85 -13 5 -17 25 -8 52 8 26 24 39 37 31 16 -8 16 -4 -1 14 -33 36 -32 59 4 59 17 0 50 27 74 59 24 33 51 55 60 49 9 -5 11 5 3 24 -9 25 -6 30 14 18 17 -11 21 -8 12 7 -17 28 -71 29 -111 4z"></path> <path d="M2240 3868 c0 -38 167 -197 177 -168 7 23 -133 200 -159 200 -10 0 -18 -15 -18 -32z"></path> <path d="M1448 3803 c-100 -55 -348 -236 -348 -254 0 -5 79 43 175 107 96 64 207 136 245 160 102 63 48 53 -72 -13z"></path> <path d="M1602 3792 c-22 -9 -56 -57 -76 -105 -49 -119 -92 -119 -47 1 19 49 18 50 -32 27 -44 -20 -46 -25 -15 -36 24 -8 28 -17 12 -26 -13 -8 -40 -6 -61 6 -51 27 -83 -12 -97 -118 -6 -45 -22 -81 -35 -81 -16 0 -21 22 -15 62 l9 62 -63 -33 c-35 -18 -72 -54 -82 -80 -9 -26 -27 -53 -39 -60 -12 -8 -16 -23 -9 -34 8 -13 -3 -13 -29 1 -35 19 -47 15 -74 -27 -36 -55 -25 -121 24 -139 23 -9 28 -4 19 20 -10 25 -3 30 28 22 22 -6 45 -2 51 8 7 10 22 13 33 5 13 -8 16 -4 8 10 -8 13 -3 24 12 26 14 2 35 5 46 8 11 2 32 5 47 7 15 1 23 14 17 28 -7 19 7 24 51 18 46 -7 57 -3 45 17 -12 18 -7 22 17 13 18 -7 33 -4 33 7 0 10 13 19 29 19 15 0 34 18 41 41 10 29 20 35 37 21 35 -28 82 6 66 48 -11 29 -5 32 37 22 41 -10 50 -5 50 26 0 22 9 45 19 51 11 7 15 25 9 40 -6 15 -1 33 11 40 11 7 21 22 21 33 0 11 -9 15 -20 8 -11 -7 -20 -8 -20 -2 0 6 25 24 55 40 l55 30 -64 -4 c-36 -2 -83 -12 -104 -22z"></path> <path d="M2214 3720 c-6 -25 -52 -60 -117 -89 l-107 -49 141 -1 c78 0 184 -16 237 -33 152 -52 142 17 -21 141 -108 82 -119 85 -133 31z"></path> <path d="M803 3239 c-37 -30 -43 -45 -25 -66 18 -22 13 -27 -24 -22 -32 3 -70 -18 -115 -65 l-69 -70 130 65 c153 78 180 102 180 158 0 51 -17 51 -77 0z"></path> <path d="M1793 1235 c8 -14 49 -71 91 -127 139 -186 118 -282 -95 -418 -112 -72 -124 -108 -52 -165 19 -15 21 -25 7 -25 -13 0 -23 -20 -23 -45 2 -41 3 -42 17 -7 14 38 16 37 45 -4 l30 -43 249 38 c560 85 657 113 763 222 93 95 120 136 70 106 -19 -11 -18 -7 1 17 36 45 13 54 -180 77 -251 28 -473 98 -561 175 -19 17 -40 26 -46 20 -14 -15 -149 112 -149 140 0 13 -10 24 -21 24 -12 0 -16 -9 -9 -20 7 -12 -19 -3 -59 20 -84 46 -99 50 -78 15z"></path> <path d="M3960 1086 c-27 -5 -71 -29 -96 -52 -96 -89 79 -112 199 -25 l47 33 -60 -13 c-46 -9 -53 -7 -30 9 27 19 27 21 0 22 -27 1 -27 3 0 20 31 20 24 21 -60 6z"></path> <path d="M4202 898 c-33 -13 -42 -26 -29 -39 26 -26 87 -3 87 33 0 15 -2 27 -5 27 -3 -1 -27 -10 -53 -21z"></path> <path d="M3113 869 c10 -26 7 -31 -12 -19 -18 10 -23 6 -17 -12 13 -40 60 -44 106 -10 46 33 40 44 -35 63 -48 11 -54 8 -42 -22z"></path> <path d="M2961 821 c-14 -26 -14 -43 -1 -51 30 -18 60 7 60 51 0 50 -33 50 -59 0z"></path> <path d="M1460 460 c0 -42 96 -68 154 -42 43 20 48 28 25 43 -40 25 -179 24 -179 -1z"></path> </g> </svg>