<svg version="1.0" xmlns="http://www.w3.org/2000/svg" width="442.000000pt" height="539.000000pt" viewBox="0 0 442.000000 539.000000" preserveAspectRatio="xMidYMid meet" style="width: 404.7px; height: auto;"> <g transform="translate(0.000000,539.000000) scale(0.100000,-0.100000)" fill="#000000" stroke="none"> <path d="M2178 5314 c-44 -23 -58 -62 -58 -159 0 -128 35 -175 129 -175 92 0 125 41 130 163 3 100 -8 137 -49 167 -34 24 -112 26 -152 4z m52 -19 c-29 -17 -64 -20 -55 -5 4 6 11 8 16 5 5 -4 17 -1 26 4 10 6 23 10 28 10 6 0 -1 -6 -15 -14z m78 -18 c-11 -9 -14 -18 -7 -28 14 -22 10 -171 -5 -191 -17 -22 -69 -23 -90 -2 -12 12 -16 36 -16 100 0 72 3 87 21 105 15 15 29 20 48 16 15 -3 33 -2 41 4 22 13 28 10 8 -4z m48 -96 c2 -50 -1 -81 -7 -81 -6 0 -7 -9 -4 -20 4 -12 2 -20 -5 -20 -6 0 -8 -5 -5 -10 8 -13 -12 -40 -29 -40 -6 0 -4 5 4 10 11 7 12 10 2 10 -11 0 -10 3 1 14 8 8 18 46 23 83 9 82 9 101 -1 133 -6 20 -5 23 5 13 8 -7 14 -45 16 -92z m-184 67 c-2 -10 -9 -21 -14 -24 -6 -4 -7 2 -3 16 5 17 4 21 -5 15 -8 -5 -11 -4 -7 2 11 18 35 11 29 -9z m-3 -123 c-2 -52 1 -63 17 -79 8 -9 12 -16 7 -16 -21 0 -39 39 -40 85 0 28 -2 55 -3 60 -1 6 -1 17 0 25 3 25 20 -42 19 -75z m101 -115 c0 -5 -5 -10 -11 -10 -5 0 -7 5 -4 10 3 6 8 10 11 10 2 0 4 -4 4 -10z"></path> <path d="M2545 5307 c-23 -71 -82 -323 -77 -328 4 -4 19 -9 33 -13 26 -6 27 -3 42 57 23 94 30 147 19 147 -5 0 -15 -21 -22 -47 -19 -78 -31 -95 -25 -39 2 27 8 52 12 55 5 3 8 18 8 34 -1 15 3 27 7 27 4 0 4 7 1 17 -5 11 -3 14 6 8 10 -5 11 -2 6 14 -4 13 -2 21 5 21 6 0 8 5 4 11 -4 7 1 10 12 7 9 -1 21 -14 24 -28 16 -59 19 -90 10 -90 -6 0 -10 6 -10 14 0 8 -7 16 -15 20 -18 6 -19 2 -5 -22 12 -20 70 -209 70 -227 0 -16 58 -31 70 -19 12 13 82 304 76 319 -2 7 -16 15 -30 17 -23 5 -27 1 -40 -46 -20 -68 -34 -154 -28 -161 8 -8 42 47 35 58 -3 5 1 13 8 18 10 6 11 9 2 9 -7 0 -13 7 -13 15 0 8 7 15 15 15 16 0 15 -24 -1 -73 -8 -24 -10 -32 -12 -60 -1 -10 -6 -16 -10 -13 -4 2 -7 -8 -6 -22 0 -15 -1 -32 -3 -37 -5 -13 -43 -17 -43 -4 0 5 6 9 13 9 7 1 5 6 -5 14 -10 7 -15 16 -12 19 3 3 -2 16 -11 30 -8 13 -20 39 -25 56 -7 24 -6 31 6 31 11 0 13 -7 8 -26 -5 -21 -4 -25 6 -19 9 5 11 4 6 -4 -7 -11 17 -44 26 -35 5 5 -3 35 -49 179 -25 79 -31 90 -56 96 -19 5 -29 4 -32 -4z m225 -112 c0 -9 -6 -12 -15 -9 -8 4 -12 10 -9 15 8 14 24 10 24 -6z m-250 -201 c0 -2 -7 -4 -15 -4 -8 0 -15 4 -15 10 0 5 7 7 15 4 8 -4 15 -8 15 -10z"></path> <path d="M1811 5283 c-39 -19 -71 -66 -71 -105 0 -15 7 -60 15 -100 21 -100 53 -133 128 -132 61 1 100 22 123 65 20 39 19 83 -2 75 -9 -3 -24 -6 -35 -6 -13 0 -19 -7 -19 -24 0 -50 -78 -75 -104 -33 -17 27 -41 159 -33 181 15 38 107 38 107 -1 0 -15 38 -17 59 -4 37 24 -43 101 -104 101 -16 0 -45 -8 -64 -17z m89 -24 c0 -6 8 -9 18 -7 18 5 45 -15 35 -26 -10 -10 -25 -7 -18 4 3 6 -3 10 -14 10 -11 0 -23 5 -26 10 -3 6 -17 10 -31 10 -13 0 -24 -4 -24 -10 0 -5 -7 -10 -15 -10 -16 0 -20 12 -8 23 11 12 83 8 83 -4z m-104 -38 c0 -11 -5 -17 -10 -14 -5 4 -7 -3 -4 -15 3 -12 0 -29 -6 -38 -11 -14 -12 -13 -11 12 3 56 31 105 31 55z m3 -114 c-2 -18 0 -38 5 -45 4 -6 3 -12 -3 -12 -6 0 -7 -7 -4 -17 4 -11 3 -14 -6 -9 -7 5 -10 25 -6 59 3 35 1 47 -5 37 -5 -8 -10 -10 -10 -4 0 13 10 24 22 24 5 0 8 -15 7 -33z m197 -59 c5 -7 3 -8 -6 -3 -9 5 -10 2 -6 -13 7 -21 -7 -36 -34 -37 -8 0 -14 -6 -12 -13 1 -8 -2 -11 -9 -6 -9 5 -6 12 8 24 11 8 25 26 32 38 13 25 17 27 27 10z m-187 -52 c-9 -8 -10 -7 -5 7 3 10 7 24 7 30 1 7 3 4 6 -7 3 -10 -1 -23 -8 -30z m69 -16 c25 -8 24 -8 -9 -7 -20 1 -36 7 -36 14 0 7 4 10 9 6 5 -3 22 -9 36 -13z"></path> <path d="M2888 5044 l-77 -154 30 -16 c17 -8 32 -14 34 -12 2 2 26 50 53 108 l51 105 0 -46 c1 -25 4 -87 8 -138 6 -89 7 -93 35 -107 17 -9 31 -14 32 -12 1 2 37 72 79 155 l77 153 -30 15 c-16 8 -31 15 -33 15 -10 0 -47 -102 -41 -112 4 -7 3 -8 -4 -4 -14 8 -46 -50 -38 -70 3 -7 0 -13 -6 -11 -6 1 -13 -4 -15 -11 -4 -10 1 -10 20 -1 17 8 23 17 20 27 -5 11 -3 13 7 7 8 -5 11 -4 7 3 -9 13 2 42 15 42 15 0 -1 -63 -21 -80 -10 -9 -16 -21 -14 -27 2 -6 -8 -19 -24 -28 -15 -9 -20 -14 -11 -11 15 5 16 3 6 -14 -7 -11 -16 -16 -20 -12 -13 13 -25 97 -17 117 7 17 8 18 8 3 1 -10 6 -18 12 -18 9 0 10 35 5 128 -6 112 -9 129 -27 145 -12 9 -26 17 -33 16 -6 0 -46 -70 -88 -155z m115 96 c-3 -11 -2 -28 3 -37 12 -28 11 -82 -2 -87 -7 -3 -9 4 -7 18 3 12 -2 28 -10 34 -13 11 -21 4 -50 -43 -26 -41 -36 -51 -41 -39 -8 20 2 37 16 28 6 -4 8 1 3 15 -5 17 -3 20 11 14 12 -4 15 -3 10 6 -11 16 13 71 30 71 8 0 14 5 14 11 0 5 -4 7 -10 4 -5 -3 -10 -2 -10 3 0 14 12 22 31 22 12 0 16 -6 12 -20z m161 -76 c4 -10 2 -13 -6 -8 -7 5 -9 2 -5 -9 3 -9 -2 -26 -13 -39 -11 -13 -19 -17 -20 -10 0 6 5 12 10 12 6 0 10 6 8 13 -2 12 11 57 17 57 1 0 6 -7 9 -16z m-149 -74 c3 -5 1 -10 -4 -10 -6 0 -11 5 -11 10 0 6 2 10 4 10 3 0 8 -4 11 -10z m-137 -61 c-8 -13 -19 -25 -26 -26 -16 -4 -15 0 8 27 11 13 21 30 21 39 1 14 2 14 6 0 2 -8 -2 -26 -9 -40z"></path> <path d="M1443 5159 c-42 -21 -73 -66 -73 -108 0 -20 27 -95 57 -159 29 -61 109 -80 182 -43 71 37 78 103 23 223 -47 103 -104 129 -189 87z m105 -22 c21 -1 32 -17 13 -17 -21 0 -73 28 -60 32 8 3 17 1 20 -4 3 -5 16 -10 27 -11z m-68 3 c0 -5 -2 -10 -4 -10 -3 0 -8 5 -11 10 -3 6 -1 10 4 10 6 0 11 -4 11 -10z m-37 -20 c-3 -12 -8 -19 -11 -16 -5 6 5 36 12 36 2 0 2 -9 -1 -20z m104 -32 c10 -18 29 -57 42 -87 26 -62 19 -95 -25 -111 -39 -15 -60 3 -94 77 -46 100 -40 136 25 146 17 2 31 5 32 6 0 0 10 -14 20 -31z m48 2 c-3 -5 0 -10 6 -12 6 -2 13 -15 14 -28 1 -14 3 -32 4 -40 1 -13 2 -13 12 0 9 13 10 13 6 0 -2 -8 0 -23 5 -32 6 -14 5 -18 -7 -18 -9 0 -14 4 -10 9 3 5 1 12 -5 16 -5 3 -10 15 -10 25 0 10 -7 26 -16 34 -8 9 -13 20 -9 25 3 5 1 12 -5 16 -16 10 -12 25 5 19 8 -4 13 -10 10 -14z m-182 -21 c-3 -16 -1 -40 5 -52 6 -12 20 -43 32 -69 11 -27 25 -48 30 -48 6 0 10 -7 10 -16 0 -8 5 -12 10 -9 6 3 10 1 10 -6 0 -6 8 -9 19 -6 14 3 18 1 14 -9 -4 -10 -10 -11 -24 -3 -11 5 -25 7 -31 3 -7 -4 -8 -3 -4 4 4 7 2 12 -4 12 -6 0 -9 4 -5 9 3 5 1 12 -5 16 -5 3 -10 1 -10 -6 0 -18 -12 -3 -15 18 -1 10 -10 36 -20 58 -20 44 -37 127 -23 119 4 -3 8 0 8 5 0 6 2 11 5 11 2 0 2 -14 -2 -31z m220 -161 c-20 -42 -24 -46 -20 -22 6 29 18 54 27 54 5 0 1 -15 -7 -32z m-37 -30 c-2 -14 -8 -18 -28 -18 -6 0 -3 7 8 15 23 18 23 18 20 3z"></path> <path d="M1510 4985 c-7 -9 -11 -17 -9 -20 3 -2 10 5 17 15 14 24 10 26 -8 5z"></path> <path d="M1140 4979 c-19 -8 -74 -45 -138 -95 -2 -1 20 -37 50 -79 29 -42 72 -104 96 -138 24 -34 46 -62 50 -62 4 0 18 8 31 17 26 18 25 21 -28 87 -34 41 -34 44 -16 57 26 19 30 19 95 -21 32 -19 62 -35 66 -35 5 0 22 9 39 20 27 18 28 20 10 26 -11 5 -46 23 -78 42 -43 25 -56 37 -48 45 6 6 11 26 11 44 0 65 -79 117 -140 92z m74 -39 c12 -42 -2 -85 -35 -112 l-34 -29 -27 33 c-16 18 -28 35 -28 39 0 16 72 51 95 46 14 -2 25 -1 25 3 0 14 -29 32 -41 24 -7 -4 -9 -3 -5 4 9 16 45 10 50 -8z m-94 -10 c0 -5 -4 -10 -10 -10 -5 0 -10 5 -10 10 0 6 5 10 10 10 6 0 10 -4 10 -10z m-20 -30 c0 -5 -7 -10 -15 -10 -13 0 -14 -4 -4 -21 8 -15 8 -19 0 -15 -17 11 -13 -10 4 -24 8 -7 15 -19 15 -28 0 -8 3 -13 6 -9 4 3 13 -1 22 -9 12 -13 16 -13 23 -2 5 7 6 -2 3 -22 -5 -27 -1 -39 14 -54 12 -10 18 -24 15 -34 -4 -9 -2 -13 5 -8 6 3 13 2 16 -3 4 -5 -2 -8 -11 -7 -10 2 -18 9 -18 17 -1 23 -15 40 -28 33 -7 -4 -9 -4 -5 1 7 7 -17 42 -60 89 -9 11 -11 16 -4 12 6 -4 12 -3 12 1 0 12 -37 42 -44 37 -3 -2 -4 -1 -1 3 3 3 0 12 -5 18 -8 9 -1 17 22 28 39 20 38 19 38 7z m142 -62 c-12 -18 -22 -29 -22 -25 0 4 7 18 16 31 10 16 12 26 5 31 -6 3 -11 11 -11 18 0 6 7 4 16 -5 16 -15 15 -19 -4 -50z m55 -57 c18 -14 33 -30 33 -34 0 -4 -12 4 -27 18 -25 22 -43 30 -65 26 -4 0 -5 6 -2 14 7 16 13 14 61 -24z"></path> <path d="M1050 4870 c0 -5 5 -10 10 -10 6 0 10 5 10 10 0 6 -4 10 -10 10 -5 0 -10 -4 -10 -10z"></path> <path d="M1125 4761 c-3 -5 -2 -12 3 -15 5 -3 9 1 9 9 0 17 -3 19 -12 6z"></path> <path d="M3308 4938 c-87 -104 -107 -132 -102 -140 3 -5 1 -7 -4 -6 -5 2 -21 -11 -35 -28 -27 -32 -35 -54 -19 -54 5 0 17 -8 28 -18 10 -9 47 -39 82 -66 60 -48 63 -49 82 -31 26 23 25 27 -7 47 -16 9 -46 32 -67 51 l-39 34 22 32 c12 17 25 31 28 31 3 0 25 -16 48 -35 41 -33 43 -33 59 -16 23 26 20 34 -24 67 -22 16 -40 32 -40 36 0 8 45 58 53 58 3 0 25 -16 49 -36 23 -19 51 -42 62 -51 17 -14 20 -13 39 6 12 11 19 22 16 24 -2 2 -40 32 -84 68 -44 36 -85 68 -92 72 -7 4 -29 -14 -55 -45z m62 8 c0 -2 3 -11 6 -19 3 -8 -2 -17 -13 -21 -33 -12 -63 -33 -56 -39 3 -4 1 -7 -7 -7 -8 0 -9 -4 -3 -12 14 -18 12 -45 -4 -45 -9 0 -10 4 -1 14 6 7 8 16 4 20 -3 3 -6 1 -6 -6 0 -8 -8 -10 -22 -6 -17 5 -19 4 -9 -3 11 -8 9 -15 -15 -38 -35 -36 -39 -59 -15 -83 11 -11 17 -22 14 -24 -8 -8 -40 27 -35 37 3 5 -2 6 -12 3 -10 -4 -15 -3 -11 3 3 6 0 10 -7 10 -8 1 -4 8 9 19 12 10 19 22 15 26 -4 5 -1 5 6 1 8 -5 12 0 12 13 0 12 7 21 16 21 8 0 13 4 10 8 -3 5 5 18 17 30 12 11 30 32 40 47 11 14 25 24 31 22 7 -3 19 -1 27 5 11 8 11 9 -3 4 -20 -6 -34 10 -16 17 17 7 28 8 28 3z m87 -62 c15 -15 20 -21 10 -14 -9 7 -20 10 -24 7 -7 -8 -33 11 -33 24 0 16 19 9 47 -17z m-112 -94 c-3 -5 -12 -10 -18 -10 -7 0 -6 4 3 10 19 12 23 12 15 0z m29 -18 c2 -4 -4 -8 -14 -8 -10 0 -16 4 -14 8 3 4 9 8 14 8 5 0 11 -4 14 -8z m-99 -113 c11 -17 -1 -21 -15 -4 -8 9 -8 15 -2 15 6 0 14 -5 17 -11z"></path> <path d="M3230 4789 c0 -5 5 -7 10 -4 6 3 10 8 10 11 0 2 -4 4 -10 4 -5 0 -10 -5 -10 -11z"></path> <path d="M1386 4843 c-6 -14 -5 -15 5 -6 7 7 10 15 7 18 -3 3 -9 -2 -12 -12z"></path> <path d="M2095 4833 c-645 -73 -1168 -551 -1305 -1193 -36 -163 -42 -360 -37 -1105 4 -562 8 -716 20 -780 56 -299 152 -512 328 -730 226 -279 559 -472 914 -530 120 -20 368 -20 476 1 359 66 671 245 893 513 55 67 146 195 146 207 0 2 13 25 29 52 39 62 114 256 139 357 42 165 44 224 40 1080 -4 904 -4 895 -70 1090 -126 372 -373 673 -708 862 -139 79 -364 151 -535 173 -73 10 -257 11 -330 3z m222 -29 c-3 -3 -12 -4 -19 -1 -8 3 -5 6 6 6 11 1 17 -2 13 -5z m46 -1 c-7 -2 -19 -2 -25 0 -7 3 -2 5 12 5 14 0 19 -2 13 -5z m96 -9 c10 -9 -35 -3 -49 6 -11 8 -7 9 15 4 17 -4 32 -8 34 -10z m48 0 c-3 -3 -12 -4 -19 -1 -8 3 -5 6 6 6 11 1 17 -2 13 -5z m53 -14 c0 -5 -7 -7 -15 -4 -8 4 -15 8 -15 10 0 2 7 4 15 4 8 0 15 -4 15 -10z m5 -33 c125 -31 179 -49 281 -97 394 -183 688 -540 794 -965 48 -191 51 -262 47 -1088 -4 -813 -3 -797 -52 -987 -59 -233 -197 -474 -374 -651 -250 -250 -531 -383 -888 -419 -123 -13 -233 -7 -388 20 -260 46 -512 174 -713 365 -224 211 -366 468 -435 786 -22 103 -22 111 -22 939 0 775 1 842 19 935 40 212 144 451 273 625 205 275 542 487 868 544 50 8 101 18 115 20 14 3 104 3 200 1 143 -3 193 -8 275 -28z m45 23 c-8 -5 -19 -10 -25 -10 -5 0 -3 5 5 10 8 5 20 10 25 10 6 0 3 -5 -5 -10z m-831 -33 c-2 -2 -17 -11 -34 -21 l-30 -17 24 20 c13 12 28 21 34 21 6 0 8 -1 6 -3z m990 -23 c14 -12 -19 -1 -35 12 -18 14 -18 14 6 3 14 -6 27 -13 29 -15z m-1064 -14 c3 -5 1 -10 -4 -10 -6 0 -11 5 -11 10 0 6 2 10 4 10 3 0 8 -4 11 -10z m1135 -10 c13 -9 13 -10 0 -10 -8 0 -22 5 -30 10 -13 9 -13 10 0 10 8 0 22 -5 30 -10z m-1220 -24 c0 -2 -7 -7 -16 -10 -8 -3 -12 -2 -9 4 6 10 25 14 25 6z m-44 -23 c-10 -11 -37 -12 -30 -2 3 5 12 9 21 9 9 0 13 -3 9 -7z m1394 -17 c16 -20 -17 -15 -36 5 -15 16 -14 17 5 12 11 -3 25 -11 31 -17z m-1462 -19 c-16 -6 -28 -14 -28 -19 0 -4 -8 -8 -17 -9 -11 0 -13 -3 -6 -6 7 -2 -8 -16 -33 -29 -56 -30 -71 -31 -24 -3 19 12 39 27 45 34 17 21 59 45 75 44 8 -1 3 -6 -12 -12z m1581 -68 c2 -7 -13 0 -33 16 -20 15 -36 30 -36 32 0 9 65 -36 69 -48z m56 -29 c17 -18 17 -20 2 -14 -9 3 -17 10 -17 16 0 5 -4 6 -10 3 -5 -3 -10 -1 -10 4 0 17 15 13 35 -9z m-1790 -10 c-3 -5 -12 -10 -18 -10 -7 0 -6 4 3 10 19 12 23 12 15 0z m-18 -26 c-3 -3 -12 -4 -19 -1 -8 3 -5 6 6 6 11 1 17 -2 13 -5z m-45 -30 c-20 -9 -30 -19 -26 -26 4 -6 3 -8 -3 -5 -6 4 -15 -5 -22 -20 -6 -14 -15 -23 -18 -19 -16 16 61 87 92 85 6 0 -5 -7 -23 -15z m1958 -41 c0 -2 -13 6 -30 18 -16 12 -27 26 -23 32 4 7 53 -38 53 -50z m70 -47 c0 -10 -34 2 -38 13 -3 10 0 10 17 2 11 -7 21 -13 21 -15z m-2152 -37 c-21 -17 -35 -36 -32 -42 4 -7 1 -6 -7 1 -12 12 -10 16 10 30 14 10 30 22 35 29 6 7 16 12 21 12 6 0 -7 -13 -27 -30z m2180 9 c7 -7 12 -18 12 -25 0 -11 -3 -11 -14 -1 -8 7 -12 16 -10 20 2 3 -2 9 -8 11 -7 3 -8 6 -2 6 5 1 15 -4 22 -11z m70 -113 c-3 -3 -13 7 -23 22 l-17 28 23 -22 c12 -12 20 -25 17 -28z m-2341 3 c0 -7 -9 -22 -20 -33 -19 -20 -19 -20 -3 13 18 35 23 39 23 20z m2393 -71 c0 -5 -4 -5 -10 -2 -5 3 -10 14 -10 23 0 15 2 15 10 2 5 -8 10 -19 10 -23z m47 -73 c2 -13 1 -15 -4 -4 -3 8 -11 19 -17 23 -7 6 -6 7 4 4 8 -2 16 -12 17 -23z m-2521 -6 c4 -7 3 -8 -4 -4 -7 4 -12 0 -12 -10 0 -10 -3 -15 -6 -11 -7 6 2 37 10 37 3 0 8 -5 12 -12z m2567 -64 c10 -19 13 -33 8 -29 -13 8 -41 65 -32 65 4 0 15 -16 24 -36z m-2613 -9 c-7 -8 -18 -15 -24 -15 -6 0 -2 7 8 15 25 19 32 19 16 0z m-43 -77 c-3 -8 -6 -5 -6 6 -1 11 2 17 5 13 3 -3 4 -12 1 -19z m-16 -59 c-5 -13 -10 -19 -10 -12 -1 15 10 45 15 40 3 -2 0 -15 -5 -28z m2759 -51 c0 -5 -7 -3 -15 6 -8 8 -15 18 -15 22 0 3 7 1 15 -6 8 -7 15 -17 15 -22z m-2778 -3 c-2 -14 -8 -25 -12 -25 -10 0 -8 20 3 38 12 18 15 15 9 -13z m2781 -35 c3 -11 1 -18 -4 -14 -5 3 -9 12 -9 20 0 20 7 17 13 -6z m14 -72 c-3 -8 -6 -5 -6 6 -1 11 2 17 5 13 3 -3 4 -12 1 -19z m-2840 -37 c-1 -17 -5 -27 -9 -23 -7 7 0 52 8 52 2 0 2 -13 1 -29z m2856 -11 c3 -11 1 -20 -4 -20 -5 0 -9 9 -9 20 0 11 2 20 4 20 2 0 6 -9 9 -20z m24 -142 c-3 -8 -6 -5 -6 6 -1 11 2 17 5 13 3 -3 4 -12 1 -19z m-2909 -53 c-3 -3 -9 2 -12 12 -6 14 -5 15 5 6 7 -7 10 -15 7 -18z m2922 -9 c0 -3 -4 -8 -10 -11 -5 -3 -10 -1 -10 4 0 6 5 11 10 11 6 0 10 -2 10 -4z m-2933 -28 c-3 -8 -6 -5 -6 6 -1 11 2 17 5 13 3 -3 4 -12 1 -19z m2930 -100 c-3 -8 -6 -5 -6 6 -1 11 2 17 5 13 3 -3 4 -12 1 -19z m0 -140 c-3 -8 -6 -5 -6 6 -1 11 2 17 5 13 3 -3 4 -12 1 -19z m0 -330 c-2 -13 -4 -3 -4 22 0 25 2 35 4 23 2 -13 2 -33 0 -45z m0 -155 c-2 -16 -4 -3 -4 27 0 30 2 43 4 28 2 -16 2 -40 0 -55z m0 -165 c-2 -13 -4 -3 -4 22 0 25 2 35 4 23 2 -13 2 -33 0 -45z m0 -545 c-3 -10 -5 -2 -5 17 0 19 2 27 5 18 2 -10 2 -26 0 -35z m-10 -55 c-3 -8 -6 -5 -6 6 -1 11 2 17 5 13 3 -3 4 -12 1 -19z m-2907 -71 c0 -5 -4 -5 -10 -2 -5 3 -10 14 -10 23 0 15 2 15 10 2 5 -8 10 -19 10 -23z m-3 -59 c-3 -8 -6 -5 -6 6 -1 11 2 17 5 13 3 -3 4 -12 1 -19z m2900 -30 c-3 -8 -6 -5 -6 6 -1 11 2 17 5 13 3 -3 4 -12 1 -19z m-34 -203 c-3 -9 -8 -14 -10 -11 -3 3 -2 9 2 15 9 16 15 13 8 -4z m-2795 -60 c-3 -3 -9 2 -12 12 -6 14 -5 15 5 6 7 -7 10 -15 7 -18z m2758 -30 c-9 -9 -16 -13 -16 -8 0 12 22 34 28 28 2 -2 -3 -11 -12 -20z m-2726 -53 c0 -3 -7 3 -15 14 -8 10 -14 28 -14 39 0 14 4 10 14 -14 8 -18 15 -36 15 -39z m2710 -7 c0 -8 -4 -15 -10 -15 -5 0 -7 7 -4 15 4 8 8 15 10 15 2 0 4 -7 4 -15z m-34 -57 c-1 -7 -10 -26 -20 -43 -9 -16 -14 -21 -11 -10 4 11 8 25 9 30 2 12 16 35 21 35 2 0 2 -6 1 -12z m-79 -160 c-3 -8 -6 -5 -6 6 -1 11 2 17 5 13 3 -3 4 -12 1 -19z m-2473 -28 c-6 -6 -10 -3 -10 10 0 13 4 16 10 10 7 -7 7 -13 0 -20z m2377 -102 c-4 -12 -14 -24 -22 -26 -11 -3 -11 -1 1 7 8 6 11 11 6 11 -5 0 -3 7 4 15 17 21 21 19 11 -7z m-2266 -37 c-6 -5 -25 10 -25 20 0 5 6 4 14 -3 8 -7 12 -15 11 -17z m25 -15 c0 -2 -7 -6 -15 -10 -8 -3 -15 -1 -15 4 0 6 7 10 15 10 8 0 15 -2 15 -4z m2177 -20 c-7 -14 -14 -23 -16 -20 -3 2 -13 -8 -23 -23 -10 -16 -18 -22 -18 -15 0 10 57 82 66 82 1 0 -3 -11 -9 -24z m-2146 -13 c13 -16 12 -17 -3 -4 -10 7 -18 15 -18 17 0 8 8 3 21 -13z m34 -41 c-3 -3 -11 0 -18 7 -9 10 -8 11 6 5 10 -3 15 -9 12 -12z m29 -37 c3 -9 0 -12 -9 -9 -7 3 -16 12 -19 19 -3 9 0 12 9 9 7 -3 16 -12 19 -19z m2017 2 c-13 -13 -26 -3 -16 12 3 6 11 8 17 5 6 -4 6 -10 -1 -17z m-26 -16 c3 -5 2 -12 -3 -15 -5 -3 -9 1 -9 9 0 17 3 19 12 6z m-1905 -55 c0 -11 -30 1 -39 16 -11 18 -11 18 14 2 14 -9 25 -17 25 -18z m1835 -6 c-3 -5 -12 -10 -18 -10 -7 0 -6 4 3 10 19 12 23 12 15 0z m-1808 -16 c-3 -4 4 -15 16 -26 l22 -19 -27 17 c-24 14 -30 34 -11 34 4 0 4 -3 0 -6z m1753 -23 c0 -5 -7 -12 -16 -15 -14 -5 -15 -4 -4 9 14 17 20 19 20 6z m-1660 -43 c0 -5 -11 -1 -25 8 -14 9 -25 18 -25 20 0 2 11 -2 25 -8 14 -6 25 -15 25 -20z m40 -24 c0 -2 -7 -4 -15 -4 -8 0 -15 4 -15 10 0 5 7 7 15 4 8 -4 15 -8 15 -10z m30 -24 c0 -5 -7 -7 -15 -4 -8 4 -12 10 -9 15 6 11 24 2 24 -11z m1475 10 c-3 -5 -16 -10 -28 -9 -21 0 -21 1 -2 9 28 12 37 12 30 0z m-56 -23 c-2 -1 -13 -9 -24 -17 -19 -14 -19 -14 -6 3 7 9 18 17 24 17 6 0 8 -1 6 -3z m-1316 -44 c-7 -2 -19 -2 -25 0 -7 3 -2 5 12 5 14 0 19 -2 13 -5z m57 -33 c0 -5 -2 -10 -4 -10 -3 0 -8 5 -11 10 -3 6 -1 10 4 10 6 0 11 -4 11 -10z m1105 0 c3 -6 -1 -7 -9 -4 -18 7 -21 14 -7 14 6 0 13 -4 16 -10z m-100 -48 c-3 -3 -11 0 -18 7 -9 10 -8 11 6 5 10 -3 15 -9 12 -12z m-720 -40 c-7 -8 -65 10 -60 18 3 4 18 3 35 -3 16 -6 27 -13 25 -15z m605 12 c0 -2 -7 -4 -15 -4 -8 0 -15 4 -15 10 0 5 7 7 15 4 8 -4 15 -8 15 -10z m-53 -10 c-3 -3 -12 -4 -19 -1 -8 3 -5 6 6 6 11 1 17 -2 13 -5z m-442 -14 c3 -6 -1 -7 -9 -4 -18 7 -21 14 -7 14 6 0 13 -4 16 -10z"></path> <path d="M2919 3677 c-66 -60 -75 -81 -54 -113 20 -31 36 -30 74 1 36 31 59 74 67 127 6 33 4 38 -12 38 -11 0 -44 -24 -75 -53z m64 0 c-3 -15 -15 -32 -26 -38 -17 -10 -19 -9 -14 5 10 26 -8 19 -23 -9 -7 -14 -20 -25 -27 -25 -21 0 -4 24 47 64 24 19 45 34 46 33 1 -1 0 -15 -3 -30z m-54 -88 c-24 -21 -39 -24 -39 -9 0 6 6 10 14 10 8 0 17 7 20 16 3 8 11 12 16 9 7 -4 3 -14 -11 -26z"></path> <path d="M1860 3639 c-67 -9 -180 -46 -180 -59 0 -5 21 0 48 10 26 10 76 24 111 31 57 11 70 10 117 -6 41 -14 54 -23 54 -38 0 -16 -5 -18 -30 -15 -16 3 -30 1 -30 -4 0 -13 -15 -9 -36 10 -10 10 -28 21 -39 25 -12 4 -6 -4 15 -23 27 -22 31 -30 17 -30 -10 0 -15 -4 -12 -10 4 -6 -1 -7 -11 -3 -14 5 -16 2 -12 -15 4 -15 1 -23 -11 -26 -36 -10 -118 -19 -155 -17 -22 2 -36 -1 -32 -7 3 -5 17 -7 31 -4 35 6 31 -4 -5 -17 -18 -6 -28 -6 -25 -1 4 6 1 10 -4 10 -6 0 -11 -4 -11 -10 0 -5 -9 -10 -20 -10 -11 0 -20 5 -20 12 0 9 -3 9 -12 0 -15 -15 -7 -22 31 -25 17 -1 31 -4 31 -7 0 -8 -86 -60 -99 -60 -7 0 -10 -4 -7 -9 4 -5 -13 -12 -36 -16 -95 -14 -108 -18 -108 -27 0 -7 18 -8 48 -3 26 4 57 8 69 10 12 1 50 25 85 52 81 64 166 109 181 94 8 -8 5 -11 -8 -11 -11 0 -73 -36 -138 -80 -65 -44 -123 -77 -129 -74 -6 4 -8 3 -5 -4 4 -5 -28 -39 -70 -75 -90 -76 -179 -164 -172 -172 3 -2 20 9 38 25 18 17 41 30 52 30 11 0 17 5 14 10 -4 6 -12 7 -18 3 -22 -13 16 28 45 48 l28 20 0 -30 c0 -22 -5 -31 -16 -31 -14 0 -15 2 -3 17 12 14 12 16 0 12 -25 -9 -23 -26 7 -47 20 -15 32 -18 43 -10 11 8 11 9 -3 4 -19 -6 -25 9 -7 19 5 4 18 0 27 -8 15 -13 20 -14 36 -1 11 8 15 14 10 14 -6 0 -15 -5 -21 -11 -8 -8 -13 -8 -17 0 -4 6 -1 11 6 12 7 0 2 4 -10 10 -13 5 -29 6 -35 2 -7 -4 -6 1 2 10 7 9 9 17 3 17 -15 0 -3 36 18 55 15 14 18 14 30 0 7 -8 17 -15 22 -15 6 0 6 6 -1 14 -10 11 -8 17 6 25 17 10 17 10 -2 11 -11 1 -14 4 -8 7 7 2 27 18 44 34 42 39 60 39 49 -1 -7 -23 -5 -30 6 -30 8 0 14 10 14 25 0 42 28 88 48 79 9 -4 24 -7 33 -8 10 0 15 -6 11 -15 -3 -8 0 -12 7 -10 7 3 13 9 13 14 1 27 40 82 70 99 28 17 31 17 19 3 -17 -21 -3 -22 23 -2 11 8 14 15 8 15 -7 0 -12 5 -12 11 0 6 8 8 19 4 11 -3 23 0 27 6 4 7 3 9 -3 6 -5 -3 -10 0 -10 7 0 8 7 12 15 8 9 -3 13 -1 9 5 -10 15 12 30 56 38 21 4 41 14 44 21 3 8 9 14 15 14 5 0 7 -4 4 -8 -2 -4 4 -8 14 -8 18 0 18 2 3 18 -9 10 -11 18 -5 18 6 0 14 -5 17 -10 4 -6 16 -8 27 -4 13 4 18 2 14 -4 -3 -6 1 -8 12 -5 22 5 35 -9 56 -62 13 -33 13 -37 1 -21 -12 16 -17 17 -28 7 -10 -10 -8 -16 8 -29 11 -10 35 -34 53 -55 17 -21 32 -32 32 -25 0 9 3 9 10 -2 5 -8 10 -10 10 -5 1 6 8 -6 16 -25 8 -19 20 -38 27 -42 9 -6 9 -8 -1 -8 -7 0 -15 7 -18 15 -4 8 -10 13 -14 10 -5 -3 -15 3 -22 13 -7 9 -32 33 -56 51 -24 19 -48 45 -53 57 -4 13 -14 24 -20 24 -7 0 -9 -3 -6 -7 4 -3 2 -12 -5 -20 -6 -8 -7 -13 -2 -12 20 3 24 -2 12 -15 -7 -8 -16 -12 -19 -10 -4 2 -6 -3 -5 -12 0 -10 -15 -22 -44 -34 -25 -10 -46 -24 -48 -32 -4 -22 27 -43 67 -44 69 -1 82 -4 76 -14 -4 -6 -10 -8 -15 -5 -4 3 -11 -1 -13 -7 -4 -10 -6 -10 -6 0 -1 6 -8 12 -16 12 -8 0 -14 -5 -12 -11 1 -7 -13 -16 -30 -21 -18 -5 -33 -13 -33 -18 0 -6 -5 -10 -11 -10 -5 0 -7 6 -4 13 4 6 0 4 -8 -5 -8 -10 -17 -15 -20 -11 -4 3 -7 2 -7 -4 0 -6 -10 -13 -23 -17 -13 -3 -36 -17 -50 -30 -25 -23 -32 -24 -28 -3 1 5 -3 6 -9 2 -6 -3 -8 -10 -5 -14 5 -9 -59 -81 -72 -81 -4 0 -1 5 7 10 8 5 10 10 4 10 -18 0 -24 -13 -13 -27 9 -9 8 -13 0 -13 -6 0 -10 -3 -9 -7 4 -13 -22 -54 -31 -49 -4 3 -7 -10 -8 -28 -1 -39 -20 -79 -33 -71 -6 3 -7 -1 -3 -10 3 -10 0 -21 -8 -26 -11 -7 -11 -9 -1 -9 7 0 10 -5 7 -11 -10 -16 -13 -169 -3 -169 4 0 8 -9 8 -21 0 -11 -4 -18 -9 -15 -4 3 -7 -9 -5 -27 2 -17 9 -33 14 -35 18 -6 10 -22 -7 -16 -17 5 -17 5 0 -6 9 -6 17 -22 17 -35 0 -14 5 -25 11 -25 7 0 9 -10 5 -27 -5 -20 -4 -24 3 -14 8 12 11 9 16 -12 4 -15 13 -27 21 -27 8 0 14 -5 14 -11 0 -5 -4 -8 -8 -5 -4 2 -8 -4 -8 -14 0 -11 2 -17 5 -15 2 3 11 -1 20 -8 14 -10 14 -10 6 3 -5 9 -2 7 8 -4 10 -11 26 -26 35 -34 9 -7 11 -10 3 -6 -9 4 -12 3 -7 -4 4 -6 14 -8 24 -5 15 6 15 5 4 -10 -12 -14 -11 -16 6 -12 12 2 22 -3 26 -13 14 -40 44 -76 71 -85 16 -6 36 -17 44 -25 25 -24 24 4 0 32 -14 16 -29 24 -39 21 -12 -4 -23 6 -36 30 -10 20 -51 68 -90 108 -50 51 -76 87 -88 122 -10 28 -21 57 -24 65 -3 8 -7 40 -9 70 -2 30 -8 59 -13 65 -5 6 -5 40 0 80 5 38 7 71 5 73 -2 2 5 24 16 49 10 24 19 52 19 61 0 18 7 31 58 110 19 29 38 50 43 46 5 -3 9 1 9 9 0 8 18 24 40 35 22 10 37 22 34 25 -4 3 5 9 20 13 14 3 26 11 26 16 0 6 7 8 15 4 20 -7 45 3 45 19 0 8 9 10 25 7 18 -3 25 0 23 9 -2 9 9 13 34 14 20 0 34 3 32 6 -2 4 8 10 23 14 22 5 31 2 46 -19 15 -20 27 -26 58 -26 37 0 108 -34 124 -60 3 -5 13 -10 22 -10 14 0 14 3 -2 20 -18 20 -17 20 46 22 84 1 120 -2 142 -14 23 -12 37 -1 17 13 -8 5 -33 14 -55 19 -71 19 -73 21 -37 38 40 19 41 32 4 32 -45 0 -45 12 -2 31 22 10 40 19 40 21 0 2 -17 3 -39 3 -27 0 -37 -3 -34 -12 3 -7 -2 -16 -11 -19 -13 -5 -14 -8 -1 -28 8 -13 12 -26 8 -30 -5 -4 -8 -13 -8 -19 0 -6 -13 -12 -30 -13 -16 0 -39 -4 -51 -8 -14 -4 -26 -1 -34 9 -7 8 -16 12 -21 9 -5 -3 -9 0 -9 5 0 6 -9 11 -20 11 -11 0 -20 6 -20 13 0 9 -3 8 -9 -2 -11 -18 -51 -5 -51 17 0 15 2 15 10 2 7 -11 9 -7 6 17 -3 30 -2 31 20 21 13 -6 24 -18 25 -27 0 -11 2 -12 6 -3 4 10 8 10 19 1 11 -9 21 -8 44 1 16 7 30 16 30 21 0 5 9 9 19 9 11 0 23 5 27 12 5 7 2 8 -7 3 -8 -5 -11 -4 -6 1 5 5 19 9 30 9 12 0 22 5 22 12 0 6 4 15 9 20 5 4 6 3 3 -4 -12 -20 17 -21 51 -1 40 25 137 26 202 3 49 -17 89 -20 74 -5 -23 23 -130 50 -197 50 -60 0 -81 -5 -145 -36 -42 -20 -87 -47 -101 -60 -14 -13 -29 -24 -33 -24 -15 0 -79 91 -128 182 -57 108 -89 141 -126 132 -17 -4 -33 1 -55 20 -19 17 -43 26 -64 26 -18 0 -39 2 -47 4 -7 2 -42 0 -78 -5z m360 -189 c0 -5 -2 -10 -4 -10 -3 0 -8 5 -11 10 -3 6 -1 10 4 10 6 0 11 -4 11 -10z m-463 -65 c-9 -18 -20 -25 -42 -25 l-30 0 30 16 c17 8 34 19 40 25 14 14 14 11 2 -16z m429 -16 c40 -31 72 -74 63 -83 -3 -3 -27 2 -54 10 -28 8 -80 15 -116 15 -47 0 -66 3 -66 12 0 8 13 13 33 13 34 0 74 27 74 51 0 21 25 15 66 -18z"></path> <path d="M2683 3619 c-14 -14 -6 -39 12 -39 21 0 26 15 12 34 -9 13 -15 14 -24 5z"></path> <path d="M1735 3510 c4 -6 11 -8 16 -5 14 9 11 15 -7 15 -8 0 -12 -5 -9 -10z"></path> <path d="M2809 3481 c-36 -37 -40 -86 -8 -94 46 -12 100 78 67 111 -18 18 -26 15 -59 -17z m41 -30 c0 -6 -5 -13 -12 -17 -7 -4 -8 -3 -4 4 4 7 3 12 -3 12 -5 0 -13 -9 -16 -20 -4 -11 -11 -18 -16 -15 -15 10 10 45 31 45 11 0 20 -4 20 -9z"></path> <path d="M3030 3446 c0 -29 11 -39 35 -30 24 10 15 48 -12 52 -19 3 -23 -1 -23 -22z"></path> <path d="M1630 3449 c0 -5 5 -7 10 -4 6 3 10 8 10 11 0 2 -4 4 -10 4 -5 0 -10 -5 -10 -11z"></path> <path d="M1416 3403 c-40 -40 -55 -63 -42 -63 4 0 106 102 106 106 0 14 -25 -3 -64 -43z"></path> <path d="M1860 3414 c-19 -11 -21 -14 -7 -14 10 0 21 -10 26 -22 l8 -22 5 22 c4 12 2 20 -3 16 -5 -3 -9 0 -9 5 0 6 5 11 10 11 6 0 10 5 10 10 0 13 -9 11 -40 -6z"></path> <path d="M1570 3410 c0 -5 5 -10 10 -10 6 0 10 5 10 10 0 6 -4 10 -10 10 -5 0 -10 -4 -10 -10z"></path> <path d="M1620 3399 c0 -5 5 -7 10 -4 6 3 10 8 10 11 0 2 -4 4 -10 4 -5 0 -10 -5 -10 -11z"></path> <path d="M1794 3381 c1 -13 11 -30 21 -37 11 -8 16 -21 12 -34 -3 -12 -1 -20 5 -18 5 2 9 7 8 12 -1 5 3 12 8 15 5 3 13 21 17 40 5 26 4 32 -6 29 -8 -3 -14 -15 -13 -27 1 -23 -4 -25 -26 -11 -13 9 -13 11 0 20 13 8 13 10 -2 10 -9 0 -19 6 -22 13 -2 6 -4 1 -2 -12z"></path> <path d="M1540 3380 c-9 -6 -10 -10 -3 -10 6 0 15 5 18 10 8 12 4 12 -15 0z"></path> <path d="M2246 3357 c3 -10 9 -15 12 -12 3 3 0 11 -7 18 -10 9 -11 8 -5 -6z"></path> <path d="M3316 3344 c-9 -8 -16 -26 -16 -40 0 -27 32 -64 55 -64 23 0 55 37 55 64 0 26 -33 56 -62 56 -9 0 -24 -7 -32 -16z m46 -17 c17 -8 22 -18 18 -32 -5 -21 -30 -33 -30 -14 0 5 -4 8 -9 5 -5 -3 -11 1 -14 9 -4 9 -1 12 7 9 8 -3 17 -1 21 5 3 6 -1 11 -9 11 -9 0 -16 5 -16 10 0 13 3 13 32 -3z"></path> <path d="M1340 3298 c0 -12 1 -19 3 -17 1 2 9 12 16 22 12 14 11 17 -3 17 -10 0 -16 -8 -16 -22z"></path> <path d="M1801 3308 c-1 -10 -10 -27 -21 -38 -18 -18 -18 -20 -2 -21 9 0 25 -2 35 -4 9 -2 15 1 11 6 -3 5 -11 6 -17 2 -8 -5 -8 -2 1 9 9 11 9 22 3 39 -7 18 -10 19 -10 7z"></path> <path d="M1772 3294 c-7 -8 -8 -14 -3 -14 10 0 25 19 20 25 -2 1 -10 -3 -17 -11z"></path> <path d="M1480 3273 c-8 -4 -22 -14 -31 -25 -9 -10 -21 -18 -27 -18 -6 0 -13 -9 -17 -19 -3 -10 -18 -22 -32 -26 -43 -10 -97 -35 -91 -41 3 -3 22 2 42 10 20 8 36 12 36 8 0 -12 -124 -128 -145 -136 -16 -6 -17 -9 -5 -16 9 -5 17 -5 20 0 3 5 18 3 33 -5 15 -8 25 -10 22 -5 -3 5 7 7 22 6 16 -2 28 -5 28 -6 0 -1 8 -3 18 -5 9 -2 15 1 11 6 -3 5 -9 7 -14 4 -4 -3 -14 3 -21 12 -12 15 -12 16 4 10 11 -4 16 -3 12 3 -3 6 2 10 13 10 10 0 22 3 26 8 4 4 13 7 19 7 7 0 13 8 15 18 5 23 -13 22 -38 -3 -12 -12 -20 -15 -20 -7 0 7 -3 8 -8 2 -15 -22 -63 -46 -76 -38 -11 6 5 28 63 88 43 44 100 99 127 122 46 39 50 49 14 36z"></path> <path d="M1740 3275 c-2 -5 -2 -13 -1 -17 0 -5 -4 -8 -10 -8 -5 0 -7 -4 -4 -10 3 -5 -3 -10 -14 -10 -12 0 -21 -5 -21 -11 0 -8 -6 -7 -16 2 -15 12 -16 11 -10 -9 7 -20 5 -21 -19 -12 -35 13 -36 13 -33 -7 2 -12 -4 -18 -17 -19 -41 -2 -46 -4 -39 -16 5 -8 2 -9 -10 -5 -10 4 -15 3 -11 -4 4 -6 -2 -8 -18 -4 -16 4 -28 2 -33 -7 -4 -7 -4 -10 1 -6 4 4 14 3 21 -3 8 -6 23 -7 36 -3 13 4 29 9 36 10 7 1 25 10 40 20 15 10 32 18 37 19 18 1 85 37 85 46 0 5 12 9 28 10 22 0 24 2 8 8 -11 4 -23 16 -27 27 -4 10 -8 15 -9 9z"></path> <path d="M1262 3215 c-28 -43 -40 -71 -127 -295 -61 -155 -66 -172 -52 -164 7 4 19 17 27 28 8 12 32 40 54 64 36 39 37 42 15 40 -23 -3 -25 2 -20 43 0 5 5 8 10 5 8 -5 26 49 22 68 -1 4 2 13 7 20 5 6 17 33 27 61 10 27 33 75 52 105 18 30 33 58 33 63 0 19 -21 3 -48 -38z"></path> <path d="M3194 3245 c-4 -8 -3 -26 0 -40 11 -43 76 -28 76 17 0 32 -65 52 -76 23z m46 -9 c0 -3 -4 -8 -10 -11 -5 -3 -10 -1 -10 4 0 6 5 11 10 11 6 0 10 -2 10 -4z"></path> <path d="M2390 3221 c0 -6 4 -13 10 -16 6 -3 7 1 4 9 -7 18 -14 21 -14 7z"></path> <path d="M1365 3210 c-3 -5 -1 -10 4 -10 6 0 11 5 11 10 0 6 -2 10 -4 10 -3 0 -8 -4 -11 -10z"></path> <path d="M2700 3173 c0 -5 30 -25 66 -47 92 -55 160 -119 174 -164 6 -20 13 -43 16 -51 3 -10 7 -11 18 -2 11 9 16 9 22 0 4 -8 3 -9 -5 -5 -19 12 -22 -18 -6 -58 18 -43 14 -56 -10 -32 -9 9 -18 16 -21 16 -8 0 -4 -9 12 -25 12 -12 13 -19 5 -29 -8 -10 -9 -16 -1 -21 5 -3 10 -17 10 -31 0 -14 -4 -22 -10 -19 -6 4 -8 -15 -7 -47 2 -29 -1 -59 -7 -67 -9 -12 -7 -13 8 -8 15 6 17 5 8 -6 -8 -10 -8 -20 2 -39 12 -23 12 -26 0 -21 -8 3 -14 0 -14 -6 0 -6 -4 -11 -10 -11 -5 0 -7 8 -4 18 4 13 3 13 -7 -2 -9 -15 -9 -21 -1 -24 7 -2 12 -8 12 -14 0 -6 -7 -7 -16 -4 -13 5 -14 3 -7 -6 9 -11 4 -100 -8 -147 -2 -7 3 -16 11 -18 12 -3 12 -2 2 5 -10 7 -10 11 3 22 8 7 15 21 15 32 0 11 5 28 10 39 7 12 7 25 2 36 -7 12 -4 22 12 36 11 10 15 16 9 12 -7 -3 -13 -2 -13 3 0 6 7 13 15 16 13 4 14 10 5 26 -8 15 -8 20 2 20 9 0 9 3 -2 11 -12 8 -9 9 12 5 16 -4 30 -1 34 6 4 6 3 8 -4 5 -14 -9 -43 3 -36 14 3 5 10 6 16 3 7 -4 8 -2 4 5 -4 6 -13 8 -19 5 -7 -4 -9 -4 -5 1 4 4 3 14 -3 22 -6 7 -8 13 -3 13 5 0 2 5 -6 11 -13 9 -13 10 2 6 9 -3 19 0 22 8 3 9 0 12 -10 8 -10 -4 -12 0 -8 11 3 9 10 16 15 16 5 0 4 11 -1 24 -10 26 -2 75 10 56 4 -6 7 5 7 24 0 19 -3 33 -7 31 -3 -2 -7 6 -7 18 -2 18 0 19 8 7 21 -32 40 -72 31 -67 -5 4 -9 0 -9 -7 0 -8 6 -12 12 -10 7 3 18 -2 25 -11 11 -13 10 -14 -5 -8 -15 5 -17 3 -11 -13 5 -10 9 -55 11 -98 3 -71 1 -81 -18 -97 -12 -10 -18 -18 -13 -19 6 0 1 -7 -10 -16 -10 -8 -13 -13 -6 -9 9 5 11 0 8 -17 -3 -12 -8 -34 -10 -48 -8 -50 -49 -180 -57 -180 -5 0 -5 -7 -2 -17 4 -11 3 -14 -5 -9 -8 4 -12 0 -12 -11 -1 -24 -25 -55 -35 -45 -5 4 -5 2 -1 -5 6 -10 -29 -83 -41 -83 -2 0 -1 5 2 10 4 7 -3 8 -22 4 -15 -3 -36 -6 -45 -7 -9 -1 -15 -4 -12 -8 5 -9 -67 -44 -86 -41 -10 1 -11 -1 -2 -4 6 -3 9 -10 6 -15 -3 -6 -12 -5 -22 3 -15 12 -16 11 -3 -4 10 -13 10 -18 2 -18 -17 0 -42 -26 -39 -41 2 -6 -3 -14 -10 -16 -8 -3 -10 1 -5 13 4 12 2 15 -8 12 -8 -3 -13 -11 -12 -17 6 -22 -13 -10 -25 17 -8 20 -10 21 -6 4 4 -14 -1 -30 -11 -41 -15 -17 -15 -19 2 -25 15 -6 15 -9 3 -16 -12 -7 -10 -14 10 -36 19 -20 21 -26 8 -21 -10 4 -18 2 -18 -4 0 -6 -4 -8 -9 -5 -5 4 -11 1 -13 -4 -2 -6 -16 -12 -32 -13 -42 -3 -55 -30 -34 -68 10 -16 14 -27 8 -24 -5 3 -11 1 -14 -4 -3 -5 -16 -7 -28 -3 -14 3 -19 2 -14 -6 10 -16 -7 -15 -23 0 -9 9 -12 9 -7 1 4 -8 -12 -15 -51 -23 -32 -6 -69 -13 -83 -17 -14 -3 -34 -7 -45 -8 -11 -2 -31 -6 -45 -10 -19 -5 -22 -4 -10 4 20 14 8 14 -27 0 -83 -34 -354 -58 -376 -34 -6 7 -19 10 -29 7 -10 -2 -18 1 -18 7 0 7 -4 10 -8 7 -4 -3 -17 11 -27 30 -10 20 -28 40 -38 46 -16 8 -17 12 -6 19 12 7 12 10 1 18 -8 4 -12 14 -11 22 4 22 -10 57 -26 63 -19 7 -19 46 -1 46 8 0 26 -4 40 -10 21 -8 26 -6 26 6 0 8 -4 13 -8 10 -4 -2 -14 -1 -21 3 -9 6 -5 10 13 13 15 3 27 0 30 -8 3 -8 11 -14 18 -14 9 0 8 3 -2 10 -20 13 -4 13 21 0 27 -15 47 -1 24 17 -43 31 -175 2 -183 -40 -2 -9 8 -27 22 -40 21 -19 26 -33 24 -66 -1 -31 5 -47 22 -66 12 -13 28 -35 34 -47 6 -13 31 -33 54 -45 68 -34 132 -37 247 -14 55 11 128 23 163 25 35 3 67 8 71 10 4 3 30 8 57 11 52 7 157 30 212 47 46 14 60 44 32 73 l-21 22 33 6 c18 3 58 16 88 30 30 14 94 40 143 57 48 18 87 37 87 42 0 5 -7 16 -15 24 -9 9 -15 11 -15 4 0 -6 -4 -8 -10 -5 -17 10 -12 38 6 31 8 -3 12 -2 9 4 -6 10 5 12 52 13 14 0 19 5 16 13 -6 15 52 74 72 74 7 0 15 9 18 21 3 11 11 19 19 17 7 -2 23 7 36 20 12 12 27 20 32 17 6 -4 7 2 3 12 -3 10 -2 15 2 11 12 -12 46 49 38 69 -5 13 -3 15 12 9 11 -4 16 -4 12 0 -4 4 -1 14 6 23 11 14 10 14 -6 2 -17 -13 -17 -13 -6 13 9 20 15 23 22 14 6 -9 7 -8 3 4 -7 22 24 78 44 79 10 0 8 3 -5 9 -11 5 -14 9 -7 9 6 1 12 9 12 19 0 18 45 112 52 109 2 -1 0 2 -4 7 -4 5 -3 17 3 28 5 10 7 18 3 18 -3 0 -1 6 5 14 6 7 9 21 5 30 -3 9 -2 16 4 16 15 0 21 -37 9 -49 -8 -8 -7 -11 3 -11 11 0 11 -3 2 -12 -7 -7 -12 -22 -12 -34 0 -13 -4 -26 -10 -29 -5 -3 -10 -12 -9 -18 0 -9 2 -9 6 1 2 6 9 12 13 12 14 0 -11 -61 -26 -67 -8 -3 -14 -18 -14 -34 0 -21 -5 -29 -17 -30 -11 0 -13 -3 -5 -6 6 -2 12 -9 12 -14 0 -6 -5 -7 -10 -4 -6 4 -10 3 -9 -2 1 -4 1 -16 0 -27 -1 -16 -3 -17 -18 -5 -15 13 -15 12 -4 -9 10 -18 10 -27 1 -38 -7 -7 -17 -11 -23 -7 -6 3 -7 1 -3 -6 8 -13 -12 -49 -45 -82 -11 -11 -19 -25 -16 -31 2 -7 -5 -20 -15 -30 -23 -23 -23 -39 2 -45 11 -3 17 -10 14 -15 -3 -5 3 -8 13 -6 11 2 28 -4 38 -12 15 -12 17 -12 10 -1 -6 11 -4 13 9 8 10 -4 20 -7 22 -7 3 0 3 -4 -1 -10 -7 -11 41 -44 54 -36 5 3 7 -3 4 -14 -3 -11 -10 -20 -15 -20 -5 0 -6 -4 -3 -10 3 -5 -1 -10 -10 -10 -9 0 -13 5 -10 10 4 6 -7 10 -27 10 -36 0 -82 -26 -73 -41 4 -5 -3 -9 -14 -9 -12 0 -21 -4 -21 -9 0 -5 -45 -8 -101 -8 -80 1 -97 3 -85 13 15 11 15 12 1 18 -9 3 -14 2 -11 -3 3 -5 -4 -11 -16 -15 -18 -4 -20 -8 -10 -18 17 -17 190 -23 265 -8 107 20 174 73 165 130 -5 39 -49 62 -126 68 l-70 5 33 46 c43 60 128 228 160 316 14 38 28 104 31 145 10 127 -21 280 -57 280 -6 0 -7 -4 -4 -10 3 -5 1 -10 -4 -10 -6 0 -11 7 -11 15 0 8 5 15 11 15 8 0 8 4 0 14 -6 7 -8 21 -5 30 5 14 9 14 22 4 13 -11 14 -10 4 7 -6 11 -18 29 -27 40 -15 18 -16 19 -11 1 4 -10 1 -25 -5 -32 -14 -17 -6 -109 17 -202 15 -58 15 -68 -1 -135 -10 -40 -23 -81 -29 -92 -5 -11 -11 -22 -12 -25 -3 -12 -20 -51 -56 -128 -21 -46 -41 -97 -45 -113 -4 -19 -22 -43 -51 -67 -24 -20 -57 -49 -72 -64 -16 -16 -30 -28 -33 -28 -2 0 -24 -18 -48 -40 -49 -45 -73 -48 -76 -8 -2 27 19 44 40 31 7 -4 8 0 3 13 -6 15 -5 17 6 6 10 -10 10 -17 -1 -35 -9 -14 0 -10 24 13 59 56 121 166 149 264 14 48 26 96 26 105 0 30 32 111 41 105 5 -3 9 42 9 105 0 93 -3 117 -22 156 -12 25 -25 45 -30 45 -4 0 -5 7 -2 15 4 8 1 15 -5 15 -6 0 -11 6 -11 14 0 20 -109 161 -170 220 -40 39 -53 46 -64 36 -12 -9 -19 -7 -35 9 -20 20 -51 28 -51 14z m547 -369 c-9 -9 -27 6 -27 22 0 13 2 13 16 -1 9 -9 14 -18 11 -21z m5 -34 c1 -11 2 -28 2 -37 1 -10 6 -22 11 -26 6 -5 4 -7 -5 -4 -8 2 -14 12 -14 21 1 9 -1 16 -5 16 -3 0 -7 11 -7 25 -2 29 15 34 18 5z m-142 -594 c0 -2 -7 -9 -15 -16 -13 -11 -14 -10 -9 4 5 14 24 23 24 12z m105 -147 c4 -6 5 -12 2 -15 -7 -7 -37 7 -37 17 0 13 27 11 35 -2z m-465 -19 c-6 -11 -15 -18 -21 -15 -10 7 -13 -8 -3 -18 8 -7 44 31 44 45 0 5 5 6 10 3 19 -12 10 -24 -45 -66 -47 -35 -56 -39 -69 -27 -18 19 -1 52 40 78 40 26 58 26 44 0z m50 -75 c5 3 10 1 10 -4 0 -6 -4 -11 -9 -11 -5 0 -18 -3 -28 -6 -15 -5 -16 -4 -3 6 13 9 12 11 -5 7 -11 -2 -19 -9 -17 -15 1 -8 -11 -12 -33 -12 -22 0 -38 -6 -41 -15 -4 -8 -10 -12 -15 -9 -5 3 -9 1 -9 -5 0 -6 -6 -8 -14 -5 -8 3 -12 12 -9 20 3 8 8 12 12 9 4 -2 8 2 8 10 0 8 -2 15 -4 15 -11 0 -53 -34 -53 -42 0 -6 8 -4 18 3 9 7 14 9 10 5 -4 -5 -3 -15 3 -23 14 -16 5 -17 -22 -2 -16 8 -19 16 -14 41 5 21 4 28 -4 24 -6 -4 -11 -3 -11 3 0 13 57 7 92 -9 22 -11 32 -10 65 7 24 12 43 16 50 10 7 -5 17 -6 23 -2z m370 0 c0 -11 -11 -15 -37 -15 l-38 1 25 14 c33 19 50 19 50 0z"></path> <path d="M2686 1982 c-3 -5 1 -9 9 -9 8 0 15 4 15 9 0 4 -4 8 -9 8 -6 0 -12 -4 -15 -8z"></path> <path d="M1669 3153 c-13 -16 -12 -17 4 -4 9 7 17 15 17 17 0 8 -8 3 -21 -13z"></path> <path d="M3370 3110 c0 -5 6 -10 14 -10 8 0 18 5 21 10 3 6 -3 10 -14 10 -12 0 -21 -4 -21 -10z"></path> <path d="M1655 3092 c-17 -9 -31 -20 -33 -24 -2 -4 -10 -4 -19 -1 -11 4 -14 2 -9 -5 7 -12 -22 -31 -42 -26 -7 1 -8 0 -2 -3 5 -2 10 -9 10 -14 0 -6 -9 -5 -21 2 -12 6 -19 7 -16 2 11 -18 -9 -31 -58 -39 -27 -4 -62 -7 -77 -7 -15 0 -25 -4 -22 -9 3 -5 0 -8 -7 -7 -13 2 -54 -4 -118 -17 -13 -3 -20 -8 -16 -12 3 -4 -11 -14 -32 -23 l-38 -17 36 3 c20 1 41 5 48 9 22 14 221 63 221 54 0 -24 182 84 212 127 4 5 10 6 14 2 4 -3 1 -13 -5 -21 -7 -8 -9 -21 -5 -27 4 -8 3 -9 -4 -5 -25 15 -99 -182 -108 -287 -12 -151 46 -376 138 -530 54 -91 180 -236 233 -269 l30 -18 -51 0 c-40 0 -55 -5 -73 -24 -25 -26 -88 -41 -107 -25 -9 7 -18 7 -31 -1 -16 -10 -15 -10 5 -5 12 4 22 2 22 -4 0 -5 13 -12 29 -16 33 -7 112 21 108 38 -1 7 10 12 25 12 14 -1 24 3 21 8 -3 5 3 7 13 3 11 -3 25 -2 33 3 11 7 10 13 -5 35 -11 14 -22 26 -26 26 -4 0 -4 8 -1 18 6 14 4 15 -9 4 -13 -10 -18 -10 -24 -1 -5 8 -3 10 7 4 8 -4 -5 11 -28 33 -24 22 -43 45 -43 51 0 7 -4 10 -8 7 -8 -5 -52 46 -52 59 0 4 -10 16 -22 27 -13 11 -17 17 -10 13 6 -3 12 -1 12 4 0 6 -4 11 -10 11 -5 0 -7 7 -4 15 5 12 2 14 -12 8 -17 -6 -17 -5 -5 10 7 9 18 14 25 10 6 -3 7 -2 3 3 -5 5 -18 9 -29 9 -17 0 -27 17 -55 90 -18 50 -35 101 -38 115 -15 79 -18 89 -24 85 -4 -2 -8 39 -9 91 -1 52 -4 99 -7 104 -3 6 -1 10 5 10 6 0 9 4 6 8 -8 13 24 142 35 142 6 0 8 4 5 9 -4 5 -2 11 4 13 5 1 11 14 12 28 2 14 11 32 21 41 9 9 17 24 17 33 0 9 5 16 10 16 14 0 12 36 -3 48 -9 8 -21 6 -42 -6z m-388 -158 c-3 -3 -12 -4 -19 -1 -8 3 -5 6 6 6 11 1 17 -2 13 -5z"></path> <path d="M3301 3044 c-18 -13 -22 -23 -17 -45 5 -26 3 -29 -19 -29 -24 0 -32 -10 -18 -23 3 -4 13 -1 21 6 13 10 14 9 4 -9 -6 -12 -8 -24 -5 -28 6 -5 -11 -10 -28 -8 -4 1 -5 -7 -2 -18 3 -11 10 -17 17 -13 31 17 56 49 56 73 0 14 9 34 21 43 20 18 23 57 4 64 -6 2 -21 -4 -34 -13z m11 -26 c-7 -7 -12 -8 -12 -2 0 6 3 14 7 17 3 4 9 5 12 2 2 -3 -1 -11 -7 -17z"></path> <path d="M1700 2909 c0 -5 5 -7 10 -4 6 3 10 8 10 11 0 2 -4 4 -10 4 -5 0 -10 -5 -10 -11z"></path> <path d="M1246 2868 c3 -5 10 -6 15 -3 13 9 11 12 -6 12 -8 0 -12 -4 -9 -9z"></path> <path d="M3011 2646 c-21 -12 -22 -14 -5 -20 10 -4 15 -4 11 0 -4 4 1 13 11 20 22 17 14 17 -17 0z"></path> <path d="M3385 2650 c3 -5 10 -10 16 -10 5 0 9 5 9 10 0 6 -7 10 -16 10 -8 0 -12 -4 -9 -10z"></path> <path d="M3312 2608 c6 -18 28 -21 28 -4 0 9 -7 16 -16 16 -9 0 -14 -5 -12 -12z"></path> <path d="M1382 2578 c-19 -19 -15 -58 7 -58 29 0 45 25 31 49 -12 24 -21 26 -38 9z m28 -18 c0 -5 -2 -10 -4 -10 -3 0 -8 5 -11 10 -3 6 -1 10 4 10 6 0 11 -4 11 -10z"></path> <path d="M2925 2540 c-3 -6 1 -7 9 -4 18 7 21 14 7 14 -6 0 -13 -4 -16 -10z"></path> <path d="M2901 2357 c0 -10 -12 -22 -26 -27 -31 -12 -32 -24 -3 -44 22 -16 22 -16 -14 -16 -20 0 -38 6 -40 12 -3 7 -7 3 -10 -8 -4 -17 -1 -20 18 -16 18 3 24 0 24 -13 0 -15 3 -14 24 6 13 12 23 32 22 43 -1 12 2 24 7 27 5 4 7 17 4 30 -3 15 -5 17 -6 6z m-11 -57 c0 -5 -4 -10 -10 -10 -5 0 -10 5 -10 10 0 6 5 10 10 10 6 0 10 -4 10 -10z"></path> <path d="M2837 2333 c-4 -3 -7 -11 -7 -17 0 -6 5 -5 12 2 6 6 9 14 7 17 -3 3 -9 2 -12 -2z"></path> <path d="M2835 2290 c3 -5 8 -10 11 -10 2 0 4 5 4 10 0 6 -5 10 -11 10 -5 0 -7 -4 -4 -10z"></path> <path d="M2803 2235 c-29 -10 -30 -12 -16 -30 13 -19 15 -19 24 -3 5 10 16 15 24 12 16 -7 19 4 7 21 -5 7 -17 7 -39 0z"></path> <path d="M3332 2234 c4 -21 22 -23 26 -1 2 10 -3 17 -13 17 -10 0 -15 -6 -13 -16z"></path> <path d="M1500 2225 c-19 -22 5 -48 31 -34 15 8 17 14 9 29 -13 24 -23 25 -40 5z"></path> <path d="M2764 2185 c3 -9 0 -15 -9 -15 -8 0 -15 -7 -15 -16 0 -8 -5 -12 -10 -9 -6 4 -23 -6 -38 -22 -31 -34 -62 -48 -62 -30 -1 7 -6 5 -14 -5 -14 -20 -91 -50 -100 -41 -3 4 -6 1 -6 -6 0 -8 -7 -10 -20 -6 -11 3 -20 2 -20 -3 0 -12 -136 -14 -174 -3 -17 5 -50 15 -72 22 -23 6 -54 22 -70 35 -21 19 -30 21 -36 12 -6 -10 -11 -9 -19 5 -6 9 -15 15 -20 11 -5 -3 -9 -2 -8 3 4 14 -13 43 -24 43 -6 0 -7 -3 -4 -7 4 -3 -1 -12 -11 -20 -16 -14 -16 -14 1 -9 10 3 15 2 12 -4 -3 -5 5 -14 17 -21 12 -7 29 -18 36 -26 17 -16 29 -17 35 0 2 6 3 4 2 -5 -3 -18 16 -29 57 -34 14 -1 37 -8 50 -15 26 -14 64 -21 126 -22 23 0 42 -6 42 -11 0 -6 4 -5 9 3 5 8 18 12 30 8 12 -3 18 -1 15 4 -3 6 6 8 21 5 17 -3 28 0 32 10 3 8 11 13 19 10 7 -3 15 0 18 7 2 7 5 4 5 -5 1 -14 5 -13 27 7 25 23 52 26 38 4 -3 -6 3 -5 15 3 19 12 19 13 3 20 -16 6 -16 7 0 7 31 2 69 24 64 38 -3 8 -1 11 5 8 5 -4 16 -1 24 5 8 7 15 9 15 4 1 -5 8 3 16 19 8 15 20 27 26 27 7 0 6 5 -2 15 -7 8 -17 15 -22 15 -6 0 -8 -7 -4 -15z"></path> <path d="M3186 2155 c4 -8 10 -15 14 -15 4 0 10 7 14 15 4 10 -1 15 -14 15 -13 0 -18 -5 -14 -15z"></path> <path d="M3023 2125 c0 -8 4 -12 9 -9 5 3 6 10 3 15 -9 13 -12 11 -12 -6z"></path> <path d="M3220 2133 c0 -6 8 -17 18 -24 16 -13 16 -13 2 6 -8 11 -16 22 -17 24 -2 2 -3 0 -3 -6z"></path> <path d="M1375 2106 c-18 -28 -7 -69 23 -85 26 -14 72 21 72 53 0 51 -68 74 -95 32z m75 -12 c0 -9 -5 -14 -12 -12 -18 6 -21 28 -4 28 9 0 16 -7 16 -16z m-21 -41 c0 -10 -3 -13 -5 -6 -3 7 -12 9 -21 6 -11 -4 -14 -2 -9 5 11 18 36 14 35 -5z"></path> <path d="M2640 2110 c0 -5 7 -7 15 -4 8 4 15 8 15 10 0 2 -7 4 -15 4 -8 0 -15 -4 -15 -10z"></path> <path d="M1544 2035 c-4 -9 -2 -21 4 -27 15 -15 44 -1 40 19 -4 23 -36 29 -44 8z"></path> <path d="M2440 1970 c0 -5 5 -10 11 -10 5 0 7 5 4 10 -3 6 -8 10 -11 10 -2 0 -4 -4 -4 -10z"></path> <path d="M3128 1973 c7 -3 16 -2 19 1 4 3 -2 6 -13 5 -11 0 -14 -3 -6 -6z"></path> <path d="M2500 1940 c-13 -9 -13 -10 0 -10 13 0 13 -1 0 -10 -8 -5 -11 -12 -7 -16 4 -4 1 -14 -5 -23 -7 -9 -8 -13 -4 -9 5 4 15 3 23 -3 10 -9 18 -6 34 12 l20 23 -23 12 c-13 7 -21 15 -20 19 6 12 -3 14 -18 5z m27 -51 c-11 -18 -12 -18 -18 -1 -8 22 -2 33 16 26 11 -5 12 -10 2 -25z"></path> <path d="M1530 1851 c0 -6 4 -13 10 -16 6 -3 7 1 4 9 -7 18 -14 21 -14 7z"></path> <path d="M1656 1795 c-9 -26 -7 -32 5 -12 6 10 9 21 6 23 -2 3 -7 -2 -11 -11z"></path> <path d="M1740 1750 c13 -8 13 -10 -2 -10 -39 0 -16 -45 33 -67 22 -10 30 -8 54 11 l28 23 -30 21 c-16 12 -45 24 -64 27 -25 4 -30 3 -19 -5z m59 -26 c36 -8 40 -19 9 -27 -31 -8 -68 2 -68 19 0 15 12 17 59 8z"></path> <path d="M3400 4814 c0 -8 5 -12 10 -9 6 4 8 11 5 16 -9 14 -15 11 -15 -7z"></path> <path d="M1420 4731 c0 -6 4 -13 10 -16 6 -3 7 1 4 9 -7 18 -14 21 -14 7z"></path> <path d="M830 4714 c-58 -36 -86 -115 -58 -167 7 -15 44 -54 81 -87 56 -50 74 -60 104 -60 50 0 98 33 123 86 28 56 22 82 -32 140 l-41 45 -49 -48 c-48 -47 -48 -47 -28 -67 19 -20 20 -20 44 3 27 25 43 21 56 -13 8 -21 -4 -55 -24 -68 -31 -21 -66 -7 -125 50 -34 32 -61 65 -61 74 0 9 11 30 24 45 23 26 27 27 56 16 29 -11 34 -10 51 10 24 29 24 32 -6 45 -36 16 -85 14 -115 -4z m36 -31 c-15 -8 -35 -12 -44 -10 -12 3 -10 5 6 6 13 0 20 5 17 11 -3 6 1 7 9 4 9 -3 16 -1 16 6 0 6 5 8 11 4 8 -4 2 -12 -15 -21z m-51 -43 c-10 -11 -18 -35 -18 -52 1 -25 -1 -28 -6 -14 -9 24 -2 66 11 66 5 0 6 5 3 10 -3 6 2 10 11 10 16 0 16 -1 -1 -20z m210 -43 c-10 -5 -21 -4 -31 3 -14 12 -15 11 -18 -12 0 -6 -7 -12 -14 -14 -7 -1 -8 0 -2 3 5 2 8 9 5 13 -3 5 4 18 17 29 20 20 23 20 40 4 17 -15 17 -18 3 -26z m30 -6 c-3 -5 -1 -12 5 -16 14 -8 13 -45 -1 -45 -6 0 -9 7 -5 15 3 8 -1 21 -9 29 -11 11 -12 16 -2 19 18 8 19 8 12 -2z m-213 -68 c-4 -21 -17 -24 -17 -5 0 4 -4 12 -8 19 -5 8 -1 11 11 10 14 -1 17 -7 14 -24z m48 -28 c0 -2 3 -10 6 -19 4 -11 1 -16 -11 -16 -9 0 -13 5 -10 10 3 6 0 13 -8 16 -7 2 -14 11 -14 19 0 10 5 11 19 4 10 -5 18 -11 18 -14z m170 -10 c0 -9 -10 -20 -22 -25 -13 -5 -32 -17 -44 -25 -18 -13 -21 -13 -21 -1 0 9 4 13 9 10 4 -3 17 4 29 15 12 11 27 17 32 14 6 -4 8 0 4 10 -3 10 -2 17 3 17 6 0 10 -7 10 -15z m-119 -37 c8 -7 12 -12 10 -11 -2 2 -11 -3 -19 -10 -13 -10 -15 -9 -9 6 6 15 3 17 -16 12 -17 -5 -19 -4 -7 4 19 14 23 14 41 -1z"></path> <path d="M1000 4621 c0 -5 5 -13 10 -16 6 -3 10 -2 10 4 0 5 -4 13 -10 16 -5 3 -10 2 -10 -4z"></path> <path d="M1259 4708 c-5 -18 -6 -38 -1 -34 7 8 12 36 6 36 -2 0 -4 -1 -5 -2z"></path> <path d="M3740 4701 c0 -6 4 -13 10 -16 6 -3 7 1 4 9 -7 18 -14 21 -14 7z"></path> <path d="M3528 4647 c-38 -29 -65 -58 -63 -65 3 -7 1 -11 -4 -8 -12 8 -29 -15 -35 -49 -12 -65 67 -155 136 -155 21 0 38 5 38 10 0 6 7 10 15 10 19 0 19 5 -1 36 -14 21 -22 23 -51 18 -42 -8 -73 16 -73 57 0 22 13 38 62 79 66 53 104 63 132 34 19 -18 21 -70 4 -77 -16 -5 -1 -35 25 -51 19 -12 42 12 52 56 9 40 -26 113 -67 138 -56 34 -94 27 -170 -33z m152 8 c9 -11 5 -11 -26 -2 -32 10 -38 9 -51 -8 -7 -11 -18 -21 -23 -21 -6 -1 -15 -2 -21 -3 -5 0 -7 -5 -4 -11 3 -5 1 -10 -5 -10 -13 0 -10 30 5 47 8 9 13 8 23 -5 12 -16 13 -15 10 3 -2 12 2 19 10 18 6 -2 12 1 12 5 0 13 58 2 70 -13z m35 -14 c3 -5 1 -12 -5 -16 -5 -3 -10 1 -10 9 0 18 6 21 15 7z m-194 -60 c-7 -11 -17 -20 -23 -18 -7 1 -12 -3 -13 -10 0 -6 -3 -14 -7 -18 -19 -19 2 28 22 50 27 28 37 27 21 -4z m214 -11 c-3 -5 -1 -10 5 -10 15 0 3 -18 -20 -30 -16 -8 -18 -8 -14 5 4 8 10 15 15 15 4 0 6 7 3 15 -4 8 -1 15 6 15 6 0 8 -4 5 -10z m-244 -123 c6 -13 20 -24 31 -24 23 -2 34 -10 25 -19 -7 -8 -67 15 -65 25 2 19 -3 31 -12 26 -5 -3 -10 -1 -10 4 0 20 20 11 31 -12z m99 -37 c0 -5 -7 -10 -16 -10 -8 0 -12 5 -9 10 3 6 10 10 16 10 5 0 9 -4 9 -10z"></path> <path d="M3580 4540 c-9 -6 -10 -10 -3 -10 6 0 15 5 18 10 8 12 4 12 -15 0z"></path> <path d="M3866 4413 c-16 -8 -25 -18 -20 -22 5 -3 17 -20 27 -38 l17 -31 -42 -25 c-24 -13 -71 -39 -105 -56 -45 -22 -61 -35 -57 -46 8 -20 24 -19 24 1 0 8 4 13 10 9 5 -3 26 4 47 15 21 11 33 20 28 20 -6 0 -2 5 8 11 10 6 21 8 24 5 4 -3 0 -6 -8 -7 -8 0 -6 -4 6 -9 17 -7 17 -9 3 -9 -10 -1 -18 -6 -18 -12 0 -6 -7 -8 -17 -5 -10 4 -25 -2 -40 -16 -15 -14 -38 -23 -61 -24 -20 -1 -31 0 -24 3 13 5 17 23 5 23 -5 0 -14 -4 -21 -9 -12 -7 -11 -14 2 -39 l16 -31 48 28 c26 15 84 47 130 70 74 39 100 61 71 61 -5 0 -7 6 -4 13 4 6 -3 1 -15 -13 -19 -21 -60 -37 -60 -23 0 10 54 48 76 54 25 8 38 -10 27 -38 -5 -12 -3 -14 7 -8 9 5 11 4 6 -4 -4 -6 -12 -9 -17 -6 -15 10 -10 -12 12 -49 20 -34 21 -35 45 -20 26 18 29 25 15 40 -5 5 -30 50 -56 99 -26 50 -50 93 -54 97 -3 3 -19 0 -35 -9z m32 -33 c7 -11 9 -20 4 -20 -4 0 -13 9 -20 20 -7 11 -9 20 -4 20 4 0 13 -9 20 -20z"></path> <path d="M551 4334 l-21 -36 52 -57 c29 -31 82 -92 118 -134 35 -42 67 -77 70 -77 3 0 14 14 24 31 18 30 18 31 -3 45 -27 19 -27 22 12 86 27 46 36 53 52 47 30 -11 45 -10 45 3 0 6 7 20 16 30 14 14 14 18 3 22 -24 8 -325 76 -336 76 -6 0 -21 -16 -32 -36z m94 4 c5 4 5 1 1 -5 -5 -8 -1 -13 11 -14 15 -1 15 -2 -2 -6 -11 -3 -32 -14 -47 -25 -28 -19 -39 -13 -17 9 9 9 6 10 -11 6 -20 -5 -21 -4 -10 16 7 13 17 20 26 17 8 -3 14 0 14 6 0 7 4 7 13 -1 8 -6 18 -7 22 -3z m142 -34 c7 3 15 0 19 -6 5 -7 2 -8 -6 -3 -8 5 -11 4 -7 -2 4 -6 18 -9 32 -8 14 2 25 -1 25 -6 0 -4 7 -6 15 -3 8 4 15 2 15 -4 0 -5 -10 -8 -22 -8 -13 1 -33 -7 -45 -17 -22 -20 -22 -20 -18 3 3 16 -1 24 -15 27 -11 3 -20 10 -20 16 0 6 -3 7 -7 4 -3 -4 -12 -2 -20 4 -10 9 -13 8 -13 -1 0 -9 -3 -10 -13 -1 -8 6 -17 8 -21 4 -4 -4 -4 0 -1 9 6 15 10 15 48 2 23 -8 47 -12 54 -10z m-88 -28 c22 -8 50 -13 61 -11 11 2 20 0 20 -6 0 -12 -43 -79 -51 -79 -3 0 -25 23 -48 50 -23 28 -47 50 -52 50 -11 0 3 -31 26 -53 12 -13 12 -17 1 -26 -11 -9 -15 -6 -20 14 -4 15 -11 23 -17 19 -8 -4 -9 1 -4 16 5 15 4 20 -4 16 -6 -4 -11 -3 -11 3 0 23 44 26 99 7z m6 -96 c23 -26 40 -25 59 2 9 12 16 18 16 14 0 -5 -7 -17 -16 -27 -17 -19 -11 -84 7 -73 15 9 10 -2 -7 -16 -12 -11 -15 -11 -12 1 2 8 -3 13 -10 11 -8 -1 -11 2 -7 7 3 6 -6 18 -20 27 -14 9 -25 25 -25 35 0 11 -3 18 -7 18 -17 -3 -24 2 -18 11 9 15 20 12 40 -10z"></path> <path d="M161 2684 c-22 -18 -31 -35 -31 -55 0 -28 2 -29 44 -29 36 0 44 3 42 18 -1 12 7 18 27 20 15 2 27 8 27 13 0 6 5 7 12 3 6 -4 8 -3 5 3 -8 13 -51 11 -68 -4 -24 -18 -58 -25 -55 -11 3 25 17 37 33 31 9 -4 14 -2 10 3 -8 14 64 10 92 -5 19 -10 21 -15 10 -22 -11 -7 -11 -9 2 -9 12 0 14 -8 11 -30 -2 -16 -8 -30 -13 -30 -5 0 -6 -7 -2 -16 4 -10 -1 -17 -16 -21 -11 -3 -18 -10 -14 -16 4 -6 -2 -8 -15 -5 -13 4 -20 2 -16 -3 3 -6 0 -16 -6 -24 -6 -8 -9 -22 -6 -33 5 -14 15 -18 46 -16 22 1 40 -3 40 -8 0 -6 -13 -8 -30 -6 -16 3 -30 1 -30 -4 0 -12 -68 -10 -75 2 -4 6 -11 7 -17 4 -7 -4 -8 -2 -4 4 4 7 2 12 -4 12 -6 0 -8 5 -5 10 4 6 11 7 17 4 7 -4 8 -2 4 4 -4 7 -3 12 3 12 5 0 13 -4 16 -10 3 -5 12 -10 18 -10 7 0 4 5 -5 11 -23 13 -23 31 -1 27 10 -2 18 3 19 10 1 6 2 17 3 23 0 6 7 9 15 6 13 -5 44 47 38 66 -1 4 2 7 8 7 5 0 7 7 4 15 -9 22 -24 18 -24 -6 0 -12 -29 -50 -70 -92 -53 -54 -70 -78 -70 -99 l0 -28 115 0 115 0 0 36 0 37 -60 -6 c-33 -3 -60 -3 -60 0 0 2 23 25 51 51 44 40 52 53 56 93 5 42 3 48 -27 72 -44 38 -115 38 -159 1z"></path> <path d="M419 2681 c-26 -27 -29 -36 -30 -103 -1 -40 -1 -82 0 -93 7 -84 117 -121 191 -65 23 18 25 25 28 124 l4 106 -30 30 c-26 26 -38 30 -82 30 -44 0 -56 -4 -81 -29z m126 -3 c4 -3 7 -12 9 -20 1 -7 7 -22 14 -33 11 -18 12 -17 7 10 -5 25 -4 27 5 12 7 -12 10 -43 6 -85 -3 -37 -6 -77 -7 -89 -1 -13 -5 -20 -10 -17 -5 3 -9 -2 -9 -10 0 -9 -2 -16 -4 -16 -2 0 -11 -3 -20 -6 -11 -4 -16 -1 -16 10 0 9 3 16 8 16 4 0 15 13 24 29 12 21 13 31 5 34 -9 3 -9 14 -1 45 6 23 8 42 3 42 -4 0 -10 14 -14 30 -4 18 -11 27 -18 23 -6 -4 -8 0 -4 10 3 10 2 17 -3 17 -6 0 -10 -5 -10 -11 0 -7 -10 -9 -25 -7 -13 3 -24 2 -23 -1 1 -17 -16 -51 -26 -51 -6 0 -4 -5 4 -10 8 -5 10 -10 4 -10 -7 0 -14 -20 -15 -44 -2 -24 -2 -43 1 -41 3 2 12 -10 19 -26 7 -16 19 -29 27 -29 9 0 12 -5 8 -12 -5 -7 -2 -9 8 -6 9 4 15 0 15 -8 0 -15 -7 -17 -31 -8 -9 3 -14 10 -11 14 3 4 -3 7 -13 6 -13 -1 -16 5 -14 24 4 21 2 22 -12 11 -14 -12 -16 -12 -10 3 3 9 2 16 -2 16 -12 0 -5 122 8 138 7 8 7 12 -1 12 -8 0 -8 4 1 14 9 10 15 11 20 2 7 -10 12 2 10 24 -1 8 85 6 93 -2z m-20 -128 c0 -84 0 -85 -25 -85 -24 0 -25 3 -28 74 -4 89 1 103 30 99 22 -3 23 -7 23 -88z"></path> <path d="M3946 2688 c-15 -13 -29 -38 -32 -55 l-6 -33 42 0 c34 0 43 4 47 21 4 15 12 19 31 17 14 -2 27 -9 30 -16 2 -7 -29 -46 -68 -86 -54 -56 -72 -82 -74 -105 l-2 -31 113 0 113 0 0 36 0 36 -55 -4 c-30 -3 -55 -2 -55 1 0 3 18 24 41 46 76 74 86 134 29 175 -40 29 -120 28 -154 -2z m104 -7 c29 -8 13 -22 -18 -16 -12 2 -28 -2 -36 -10 -7 -8 -17 -11 -21 -7 -5 4 -5 -1 -2 -10 5 -15 4 -16 -13 -5 -11 6 -16 13 -10 15 6 2 8 7 5 12 -3 4 2 11 11 14 10 4 13 1 9 -7 -3 -6 0 -4 7 6 14 18 27 20 68 8z m60 -70 c0 -25 -3 -32 -15 -27 -8 3 -14 2 -13 -2 3 -14 -17 -47 -44 -74 -15 -15 -28 -32 -28 -37 0 -16 40 -33 61 -28 10 3 19 1 19 -4 0 -4 7 -6 15 -3 8 4 15 2 15 -3 0 -5 -36 -10 -80 -11 -54 -2 -80 0 -80 8 0 6 -4 9 -9 6 -19 -12 -4 24 21 49 17 17 32 23 44 19 16 -5 16 -4 4 5 -9 7 -11 14 -5 19 6 4 23 24 38 45 16 20 32 35 36 33 3 -3 7 4 7 14 0 13 -4 16 -12 9 -16 -13 -28 19 -13 37 17 20 38 -11 39 -55z"></path> <path d="M4056 2563 c-6 -14 -5 -15 5 -6 7 7 10 15 7 18 -3 3 -9 -2 -12 -12z"></path> <path d="M4213 2700 c-34 -14 -43 -42 -43 -137 0 -106 18 -146 74 -162 76 -20 146 27 146 98 0 48 -22 78 -66 90 -48 13 -59 7 -80 -42 -22 -54 -24 -77 -7 -77 7 0 13 -6 13 -14 0 -22 50 -12 72 15 17 21 19 21 13 4 -4 -14 -3 -17 5 -9 13 13 2 46 -14 37 -6 -3 -6 -1 2 8 6 7 12 18 12 24 0 5 -4 4 -9 -3 -6 -11 -13 -7 -30 14 -11 14 -21 22 -21 16 0 -5 -7 -12 -14 -15 -10 -4 -13 -1 -9 9 3 7 8 14 12 15 44 6 51 4 51 -10 0 -14 2 -14 10 -1 8 13 10 12 10 -3 0 -10 4 -15 10 -12 6 4 7 -1 3 -11 -4 -10 -2 -15 4 -11 6 4 9 -6 8 -25 -3 -44 -48 -79 -97 -76 -30 1 -38 6 -38 21 0 10 -4 16 -9 13 -18 -12 -28 22 -30 108 -2 69 0 87 10 80 9 -5 11 -2 6 9 -3 9 -2 19 3 22 6 4 10 1 10 -6 0 -8 5 -6 13 4 9 13 20 16 45 11 17 -4 32 -11 32 -16 0 -6 8 -4 17 3 11 10 14 10 9 2 -4 -8 -2 -13 5 -13 8 0 8 -4 -1 -15 -10 -12 -15 -13 -21 -4 -4 7 -17 14 -30 16 -12 2 -29 9 -36 15 -8 6 -13 7 -11 2 1 -5 -3 -19 -10 -31 -7 -13 -10 -34 -6 -49 7 -29 21 -21 26 16 3 28 48 43 48 17 0 -17 78 -29 83 -12 7 19 -15 64 -38 79 -26 17 -96 20 -132 6z m95 -196 c2 -11 -4 -27 -13 -34 -22 -19 -50 9 -40 39 9 29 49 25 53 -5z"></path> <path d="M285 2560 c3 -5 8 -10 11 -10 2 0 4 5 4 10 0 6 -5 10 -11 10 -5 0 -7 -4 -4 -10z"></path> <path d="M543 1326 c-29 -11 -51 -25 -49 -31 4 -11 22 -11 49 0 12 5 17 2 17 -8 0 -17 18 -33 26 -24 3 3 1 14 -5 25 -8 16 -7 21 5 26 22 9 22 9 29 -24 4 -17 13 -30 22 -30 8 0 13 3 11 8 -2 4 -10 24 -18 45 -16 42 -16 42 -87 13z"></path> <path d="M3846 1334 c-3 -9 8 -17 34 -25 54 -16 50 -29 -9 -29 -69 0 -75 -23 -13 -46 26 -10 53 -22 60 -28 10 -7 16 -6 22 5 7 10 -1 18 -33 30 l-42 17 53 7 c30 5 52 13 52 20 0 6 -27 23 -59 37 -47 21 -61 23 -65 12z"></path> <path d="M603 1202 c-29 -15 -53 -33 -53 -41 0 -7 6 -11 13 -8 6 3 20 8 30 12 22 9 24 -17 2 -35 -17 -14 -20 -40 -5 -40 5 0 14 9 21 21 7 14 17 19 30 16 10 -3 28 2 40 12 20 16 20 17 3 54 -10 20 -20 37 -23 37 -3 -1 -30 -13 -58 -28z m67 -39 c0 -19 -30 -16 -37 3 -7 20 18 38 29 21 4 -7 8 -18 8 -24z"></path> <path d="M3786 1205 c-3 -8 -2 -15 2 -15 4 -1 21 -12 37 -26 23 -19 25 -24 10 -20 -66 17 -75 18 -75 5 0 -8 17 -29 37 -47 l38 -33 -39 16 c-47 18 -66 19 -66 2 0 -16 119 -42 132 -29 6 6 -5 21 -29 41 -43 35 -41 37 15 17 36 -13 41 -13 46 0 4 10 -6 26 -26 42 -18 15 -40 35 -50 45 -22 21 -24 21 -32 2z"></path> <path d="M681 1080 c-24 -16 -49 -31 -55 -33 -13 -4 23 -77 42 -84 23 -10 25 5 3 33 -16 20 -18 30 -10 40 13 16 29 9 29 -12 0 -8 7 -14 15 -14 18 0 19 12 4 27 -12 12 -4 33 12 33 5 0 15 -11 21 -25 9 -21 38 -36 38 -20 0 5 -52 86 -54 84 0 0 -21 -14 -45 -29z"></path> <path d="M3686 1016 c-30 -29 -25 -55 15 -85 37 -28 69 -24 88 11 14 24 14 28 -4 48 -11 12 -32 28 -48 36 -25 14 -29 13 -51 -10z m55 -23 c31 -19 38 -47 14 -57 -21 -8 -70 37 -62 57 8 21 12 21 48 0z"></path> <path d="M764 965 c-4 -8 -3 -31 0 -50 6 -28 4 -35 -9 -35 -14 0 -17 5 -19 42 -2 29 -21 25 -24 -4 -2 -17 4 -34 17 -47 25 -25 35 -26 54 -6 12 12 13 22 4 50 -12 39 -5 54 17 36 8 -7 12 -21 8 -33 -3 -15 -1 -19 9 -16 21 7 23 37 3 59 -20 23 -52 25 -60 4z"></path> <path d="M3589 888 l-23 -31 50 -43 c33 -29 52 -40 59 -33 7 7 3 16 -12 29 -32 25 -29 31 15 28 41 -3 57 15 17 20 -16 2 -25 10 -25 21 0 48 -50 54 -81 9z m57 -9 c10 -16 -23 -46 -36 -33 -6 6 -8 18 -4 27 7 19 29 22 40 6z"></path> <path d="M833 841 c-24 -21 -43 -44 -43 -50 0 -16 10 -14 32 6 17 15 20 15 35 0 15 -15 15 -18 -8 -36 -16 -13 -21 -23 -14 -30 12 -12 105 63 105 85 0 18 -9 18 -32 -2 -14 -14 -20 -15 -33 -4 -14 12 -14 15 5 35 18 19 18 36 1 35 -3 -1 -25 -18 -48 -39z"></path> <path d="M3512 794 c-29 -20 -28 -59 3 -89 26 -27 64 -32 83 -13 17 17 15 63 -3 78 -13 10 -19 9 -35 -5 -15 -13 -17 -22 -10 -29 8 -8 13 -7 20 4 8 12 10 12 15 -2 16 -41 -20 -50 -55 -14 -25 28 -21 59 7 54 10 -2 18 3 18 11 0 21 -17 23 -43 5z"></path> <path d="M932 729 c-27 -30 -41 -53 -36 -60 5 -9 16 -2 36 21 30 37 36 26 17 -29 -20 -56 3 -59 52 -6 50 54 56 65 37 65 -8 0 -29 -19 -47 -42 -19 -24 -30 -34 -26 -23 44 122 33 147 -33 74z"></path> <path d="M3383 674 c-3 -9 -1 -25 6 -36 17 -27 7 -34 -23 -15 -21 14 -26 14 -36 2 -9 -11 -4 -16 30 -26 23 -7 49 -23 57 -36 9 -14 20 -20 25 -15 10 10 0 42 -12 42 -5 0 -12 20 -16 45 -7 49 -20 66 -31 39z"></path> <path d="M1053 633 c-15 -21 -31 -39 -35 -41 -16 -7 -7 -29 22 -57 21 -20 33 -26 41 -18 7 7 2 17 -17 32 -21 16 -25 24 -16 33 9 9 17 7 32 -7 17 -15 20 -16 20 -3 0 9 -7 21 -15 28 -12 10 -13 16 -4 27 10 11 16 10 35 -8 12 -11 27 -18 33 -15 9 6 -47 66 -62 66 -3 0 -19 -17 -34 -37z"></path> <path d="M1163 554 c-3 -9 2 -32 12 -50 10 -19 16 -36 13 -39 -11 -11 -38 8 -38 27 0 11 -5 18 -12 15 -17 -5 -11 -39 10 -54 21 -17 47 -16 62 2 10 12 8 21 -8 50 -14 22 -17 37 -11 41 12 7 34 -11 34 -28 0 -6 6 -13 13 -15 19 -7 14 32 -6 50 -24 22 -61 22 -69 1z"></path> <path d="M3225 550 c-5 -8 25 -56 66 -104 10 -11 79 34 79 52 0 18 -11 15 -38 -10 l-24 -23 -28 35 c-16 19 -30 41 -30 48 0 15 -16 16 -25 2z"></path> <path d="M1291 487 c-15 -15 -14 -31 6 -66 10 -16 14 -33 11 -37 -10 -9 -38 15 -38 33 0 8 -6 13 -12 10 -17 -5 -10 -38 10 -54 50 -37 91 7 53 58 -26 35 -26 39 -1 39 13 0 20 -7 20 -20 0 -11 7 -20 15 -20 23 0 18 38 -7 52 -31 17 -44 18 -57 5z"></path> <path d="M3123 482 l-22 -17 36 -58 c23 -38 39 -55 45 -49 6 6 6 18 -2 32 -10 19 -9 24 9 37 23 16 27 43 9 61 -17 17 -49 15 -75 -6z m63 -13 c10 -17 -23 -46 -37 -32 -7 7 -9 19 -6 27 7 18 33 21 43 5z"></path> <path d="M3041 436 c-8 -9 -10 -24 -6 -37 6 -19 4 -21 -11 -14 -30 12 -64 18 -64 11 0 -18 57 -116 68 -116 18 0 15 18 -10 52 l-22 31 27 -6 c21 -6 26 -3 29 15 4 21 6 19 23 -14 10 -21 25 -38 32 -38 18 0 17 3 -17 67 -37 69 -34 67 -49 49z"></path> <path d="M1536 417 c3 -10 9 -15 12 -12 3 3 0 11 -7 18 -10 9 -11 8 -5 -6z"></path> <path d="M1450 349 c-16 -35 -29 -63 -27 -64 1 0 20 -7 41 -14 37 -13 41 -12 58 9 21 27 32 64 25 84 -3 8 -20 22 -36 31 l-31 15 -30 -61z m80 3 c0 -4 -9 -22 -20 -39 -13 -22 -25 -31 -35 -27 -19 8 -19 15 2 58 13 29 19 33 35 25 10 -5 18 -13 18 -17z"></path> <path d="M2892 362 c2 -4 14 -33 27 -64 15 -35 29 -54 36 -51 17 6 -33 123 -52 123 -8 0 -13 -4 -11 -8z"></path> <path d="M1587 292 c-21 -67 -21 -72 -4 -72 6 0 24 -7 39 -14 19 -10 30 -11 34 -4 8 12 -14 28 -38 28 -12 0 -18 8 -18 21 0 17 4 20 24 15 33 -8 43 10 11 21 -17 6 -22 12 -16 22 7 11 15 11 40 3 24 -9 31 -8 31 2 0 10 -60 36 -81 36 -2 0 -12 -26 -22 -58z"></path> <path d="M2786 324 c-35 -35 -15 -64 45 -64 20 0 29 -5 29 -16 0 -13 -7 -15 -35 -10 -37 7 -45 -3 -20 -24 16 -13 48 -6 70 16 24 24 2 52 -42 56 -20 2 -38 8 -40 14 -5 16 27 26 42 14 10 -8 15 -8 20 1 17 27 -44 39 -69 13z"></path> <path d="M1730 289 c0 -11 -4 -28 -9 -37 -4 -9 -11 -29 -15 -44 -6 -25 -3 -28 35 -38 28 -8 45 -8 52 -1 7 7 1 12 -19 17 -44 10 -44 11 -29 62 18 59 18 62 0 62 -8 0 -15 -9 -15 -21z"></path> <path d="M1860 258 c0 -13 -6 -46 -13 -74 -12 -48 -12 -51 4 -47 13 4 20 20 26 62 10 74 10 74 -4 79 -8 2 -13 -6 -13 -20z"></path> <path d="M1933 247 c3 -8 8 -40 12 -71 10 -74 26 -71 65 12 24 51 27 63 14 60 -9 -2 -25 -23 -35 -48 -10 -25 -19 -39 -20 -32 -1 6 -3 17 -4 22 -1 6 -3 24 -4 40 -1 20 -6 30 -17 30 -9 0 -14 -6 -11 -13z"></path> <path d="M2495 213 c12 -90 14 -94 44 -87 63 16 70 28 50 97 -10 36 -11 37 -56 37 l-45 0 7 -47z m73 -16 c2 -27 -1 -39 -13 -43 -21 -8 -23 -6 -31 45 -7 41 -6 43 17 39 20 -2 25 -10 27 -41z"></path> <path d="M2377 243 c-26 -4 -27 -7 -21 -46 12 -89 10 -87 59 -87 35 0 45 4 45 16 0 13 -7 15 -35 10 -31 -6 -35 -4 -35 14 0 15 6 20 26 20 14 0 23 4 19 10 -3 6 -17 10 -31 10 -37 0 -30 28 8 32 17 2 33 9 36 16 4 12 -14 13 -71 5z"></path> <path d="M2076 178 c-3 -34 -5 -62 -4 -64 2 -1 23 -4 47 -5 29 -2 46 1 49 9 2 8 -8 12 -32 12 -29 0 -36 4 -36 20 0 17 5 19 25 14 19 -5 25 -2 25 10 0 10 -9 16 -25 16 -16 0 -25 6 -25 16 0 13 8 15 35 12 24 -3 35 0 35 9 0 9 -15 13 -44 13 l-43 0 -7 -62z"></path> <path d="M2213 173 c2 -39 8 -68 15 -71 8 -2 12 8 12 27 0 39 15 40 35 1 16 -32 42 -43 30 -12 -15 36 -17 52 -6 52 6 0 11 11 11 25 0 28 -25 45 -70 45 l-31 0 4 -67z m66 34 c13 -16 5 -27 -21 -27 -11 0 -18 7 -18 20 0 23 22 27 39 7z"></path> <path d="M2660 159 c0 -17 4 -28 10 -24 6 3 10 17 10 31 0 13 -4 24 -10 24 -5 0 -10 -14 -10 -31z"></path> </g> </svg>