<?xml version="1.0" standalone="no"?> <!DOCTYPE svg PUBLIC "-//W3C//DTD SVG 20010904//EN" "http://www.w3.org/TR/2001/REC-SVG-20010904/DTD/svg10.dtd"> <svg version="1.0" xmlns="http://www.w3.org/2000/svg" width="250.000000pt" height="243.000000pt" viewBox="0 0 250.000000 243.000000" preserveAspectRatio="xMidYMid meet"> <g transform="translate(0.000000,243.000000) scale(0.100000,-0.100000)" fill="#41aa65" stroke="none"> <path d="M1887 2147 c-53 -47 -59 -55 -55 -87 7 -71 83 -45 124 43 50 108 22 126 -69 44z m57 1 c-1 -13 -3 -25 -4 -28 -1 -3 -2 -9 -1 -13 1 -4 -6 -10 -14 -13 -8 -3 -13 -9 -10 -13 2 -4 -2 -8 -10 -8 -11 0 -11 4 1 22 8 13 11 30 8 40 -5 12 -4 16 3 12 6 -4 13 0 17 8 8 22 13 18 10 -7z m-56 -48 c-13 -20 -28 -27 -28 -12 0 10 22 32 32 32 5 0 3 -9 -4 -20z m11 -51 c-14 -8 -29 -3 -29 11 0 4 9 6 21 3 15 -4 17 -8 8 -14z"/> <path d="M1840 2181 c0 -6 4 -12 8 -15 5 -3 9 1 9 9 0 8 -4 15 -9 15 -4 0 -8 -4 -8 -9z"/> <path d="M772 2094 c-49 -13 -112 -40 -112 -48 0 -2 35 8 78 22 117 38 231 33 264 -13 10 -14 -19 -27 -42 -20 -12 4 -20 2 -20 -4 0 -6 -18 1 -40 15 -22 15 -43 25 -46 22 -2 -3 10 -15 28 -27 25 -15 28 -21 14 -21 -16 0 -17 -2 -5 -16 12 -15 11 -16 -10 -9 -20 6 -22 4 -17 -13 6 -18 1 -21 -39 -28 -26 -3 -71 -7 -101 -7 -30 0 -54 -5 -54 -10 0 -5 15 -5 33 -2 17 4 28 4 24 -1 -4 -4 -36 -13 -70 -19 -61 -10 -62 -10 -43 -29 19 -19 19 -19 12 0 -5 15 -4 16 5 7 6 -6 19 -9 28 -6 9 3 0 -6 -19 -21 -19 -15 -45 -29 -57 -32 -13 -4 -21 -10 -18 -14 4 -7 -24 -15 -100 -27 -16 -3 -34 -9 -40 -15 -7 -6 13 -7 59 -3 60 7 77 13 125 50 80 60 135 93 168 100 21 5 15 -1 -22 -22 -27 -16 -86 -53 -130 -83 -44 -30 -90 -56 -103 -57 -13 -1 -30 -7 -38 -14 -8 -6 -14 -8 -14 -5 0 4 -20 -13 -45 -38 -25 -25 -51 -46 -59 -46 -19 0 -89 -30 -84 -36 3 -2 24 2 47 10 23 9 45 16 49 16 4 0 34 22 67 49 81 65 103 74 35 14 -94 -81 -220 -206 -215 -211 3 -3 -3 -14 -12 -25 -18 -19 -17 -19 4 -6 13 8 23 18 23 24 0 21 75 82 99 80 20 -2 22 0 8 10 -14 10 -11 15 18 38 l33 26 4 -33 c2 -22 0 -32 -8 -29 -6 2 -17 -3 -24 -12 -7 -8 -18 -15 -24 -15 -22 0 -98 -57 -84 -63 8 -3 25 4 39 14 13 10 30 19 37 19 7 0 20 7 29 15 8 8 19 12 25 9 7 -4 8 -2 4 4 -4 7 -3 12 3 12 5 0 13 -5 16 -10 5 -8 11 -8 19 -1 7 6 16 8 20 4 14 -14 35 -11 29 4 -5 12 -7 12 -14 1 -7 -10 -9 -9 -9 4 0 14 32 33 50 30 3 0 12 6 21 13 8 8 24 16 36 18 12 1 27 8 35 13 15 13 50 28 59 26 4 -1 16 10 29 23 12 13 28 21 35 19 8 -3 18 4 25 15 12 24 30 28 30 7 0 -8 4 -17 9 -20 13 -8 8 27 -6 42 -6 6 -16 12 -22 12 -6 0 -11 5 -11 10 0 16 -17 12 -24 -6 -3 -8 -2 -12 4 -9 6 3 10 0 10 -8 0 -8 -7 -17 -15 -21 -8 -3 -15 -1 -15 4 0 18 -19 10 -25 -10 -3 -11 -13 -20 -21 -20 -8 0 -14 -5 -14 -12 0 -9 -3 -9 -12 0 -7 7 -17 12 -22 12 -6 0 -5 -5 2 -12 20 -20 13 -28 -14 -17 -15 5 -29 7 -32 4 -3 -3 1 -5 9 -5 10 -1 9 -5 -5 -15 -10 -8 -22 -12 -27 -10 -11 8 -59 -17 -53 -26 11 -19 -16 -8 -29 12 -9 13 -17 16 -22 10 -3 -6 -2 -11 2 -11 5 0 9 -9 10 -20 2 -25 -8 -25 -29 -1 -12 14 -13 22 -5 30 6 6 7 11 2 11 -4 0 0 9 10 20 17 19 20 19 44 3 24 -15 25 -15 12 0 -11 14 -11 18 3 23 9 3 16 14 16 24 0 17 47 60 65 60 4 0 5 -13 3 -30 -3 -20 0 -30 9 -30 8 0 13 12 13 33 0 35 26 81 41 72 5 -4 9 -1 9 4 0 6 5 11 12 11 6 0 20 8 31 18 20 16 20 16 14 -1 -15 -40 -19 -67 -10 -67 5 0 15 16 22 36 7 20 24 45 37 56 13 12 21 26 17 32 -3 6 0 5 8 -2 12 -11 10 -17 -14 -38 -15 -13 -24 -24 -18 -24 5 0 16 7 25 15 16 17 30 20 21 5 -4 -6 1 -7 12 -3 17 6 17 5 0 -15 -11 -11 -16 -25 -13 -31 4 -5 2 -12 -4 -16 -16 -10 -12 -42 6 -49 9 -4 19 -4 22 -1 3 3 1 5 -5 5 -14 0 -9 51 6 76 11 17 12 17 7 1 -3 -10 -2 -15 4 -12 5 3 8 16 6 28 -2 12 2 28 8 36 9 12 7 12 -12 2 -13 -7 -26 -10 -29 -7 -3 3 2 8 11 12 9 3 16 10 16 15 0 4 -6 6 -14 3 -8 -3 -17 0 -21 6 -3 6 -3 10 2 9 12 -3 45 12 67 30 18 15 19 15 12 -3 -7 -19 -6 -19 14 -1 14 13 20 14 20 5 0 -7 3 -10 6 -7 4 4 1 13 -6 22 -10 12 -9 16 6 21 53 17 73 27 69 34 -10 16 12 19 31 6 13 -10 26 -11 42 -5 15 6 21 5 17 -1 -3 -6 -2 -10 2 -10 5 0 18 -7 29 -16 10 -8 13 -13 7 -9 -9 4 -11 1 -7 -9 3 -9 11 -13 17 -9 6 3 7 1 3 -5 -4 -7 -3 -12 2 -12 5 0 9 -7 9 -15 0 -23 -15 -18 -32 13 -9 15 -14 19 -11 10 3 -11 -2 -19 -13 -23 -13 -4 -17 -12 -13 -32 3 -18 1 -24 -6 -19 -7 4 -10 2 -7 -6 3 -8 -2 -22 -11 -33 -8 -11 -13 -15 -10 -8 7 13 -19 12 -31 -2 -4 -4 -2 -5 5 -1 6 4 12 3 12 -2 0 -12 -25 -22 -53 -22 -16 0 -18 3 -9 9 11 6 10 10 -4 15 -9 3 -19 4 -22 1 -3 -3 1 -5 9 -5 12 0 12 -2 0 -9 -11 -7 -9 -10 8 -16 18 -5 20 -9 10 -21 -6 -8 -10 -16 -8 -17 35 -25 59 -35 64 -27 3 6 25 10 47 10 40 0 41 -1 24 -19 -10 -11 -24 -17 -31 -15 -7 3 -20 -2 -29 -11 -10 -11 -16 -12 -16 -4 0 8 -6 7 -18 -4 -10 -10 -24 -17 -31 -17 -7 0 -9 -5 -5 -11 4 -7 -1 -7 -16 1 -13 7 -20 8 -16 2 4 -7 -8 -14 -30 -18 -20 -4 -31 -10 -25 -13 7 -5 -1 -16 -20 -30 -18 -13 -28 -17 -24 -10 5 8 0 6 -12 -4 -11 -9 -23 -14 -27 -10 -4 5 -6 4 -5 -2 5 -14 -31 -66 -41 -60 -4 3 -13 -2 -20 -10 -7 -8 -17 -12 -24 -8 -6 3 -5 0 2 -8 11 -12 15 -11 28 5 8 11 14 16 14 10 -1 -16 -28 -46 -38 -40 -5 3 -18 -1 -28 -10 -18 -14 -18 -15 2 -5 28 14 37 3 19 -23 -8 -11 -15 -31 -15 -43 0 -13 -9 -31 -20 -40 -21 -18 -28 -39 -9 -27 7 4 9 -1 5 -15 -3 -11 -8 -29 -11 -38 -10 -38 -13 -143 -4 -143 14 0 11 -64 -3 -79 -11 -10 -10 -11 5 -5 13 4 16 2 12 -9 -4 -8 1 -22 10 -31 15 -15 15 -16 -2 -16 -17 -1 -17 -1 0 -11 10 -6 17 -23 18 -42 0 -18 3 -26 6 -19 6 15 33 -30 33 -54 0 -8 10 -19 23 -24 12 -5 18 -9 13 -9 -5 -1 -3 -8 4 -16 7 -8 9 -15 5 -15 -4 0 -2 -7 5 -15 7 -9 19 -14 27 -11 7 3 14 1 14 -4 1 -6 2 -16 3 -22 1 -7 7 -12 13 -11 16 3 54 -47 46 -60 -3 -5 -1 -7 4 -4 6 4 16 0 23 -8 7 -8 16 -13 20 -10 4 3 16 -3 27 -13 10 -9 14 -13 7 -9 -7 4 -15 3 -19 -3 -4 -6 -3 -10 2 -9 4 1 11 0 16 -1 4 -1 13 -3 19 -4 7 0 13 -10 13 -21 0 -14 7 -20 21 -20 12 0 31 -8 42 -18 20 -18 21 -18 31 0 8 14 9 8 6 -27 -3 -29 -1 -40 5 -30 5 8 6 18 4 22 -3 4 -1 8 5 8 5 0 12 -4 16 -10 3 -5 13 -6 22 -3 11 4 14 3 9 -5 -5 -8 -1 -10 10 -5 10 4 15 2 11 -4 -7 -11 22 -11 42 2 9 5 12 4 8 -2 -7 -12 15 -15 101 -16 94 -1 151 7 157 22 3 7 12 10 21 7 9 -4 13 -2 8 5 -4 8 1 9 15 4 11 -3 21 -2 21 3 0 8 34 20 72 26 4 1 12 6 19 13 9 9 5 11 -20 8 -17 -2 -37 -7 -43 -11 -7 -4 -8 -3 -4 4 4 7 2 12 -3 12 -6 0 -11 -6 -11 -13 0 -13 -76 -38 -117 -39 -14 0 -23 -7 -24 -17 0 -10 -2 -11 -6 -3 -2 6 -10 9 -16 5 -16 -10 -138 -4 -152 7 -7 6 -21 7 -30 3 -12 -4 -16 -3 -11 5 3 6 1 14 -5 18 -8 4 -9 3 -5 -4 4 -7 5 -12 1 -12 -14 0 -77 31 -91 45 -19 18 -38 20 -28 3 3 -7 -11 6 -33 29 -21 24 -44 43 -51 43 -7 0 -24 12 -38 28 -14 15 -23 21 -19 15 3 -7 2 -13 -4 -13 -11 0 -51 48 -51 63 0 5 -26 34 -59 63 -77 70 -129 174 -139 274 -16 174 11 308 84 411 19 27 34 54 34 61 0 9 3 8 10 -2 8 -13 10 -12 10 3 0 9 6 17 13 17 6 0 27 14 46 30 18 17 40 30 47 30 8 0 14 5 14 11 0 6 8 8 19 4 11 -3 25 1 34 10 9 8 25 15 36 15 12 0 21 6 21 16 0 8 4 13 9 10 4 -3 27 2 50 11 41 16 42 16 69 -10 19 -18 39 -27 61 -27 36 0 62 -12 104 -46 35 -29 57 -32 32 -4 -18 20 -17 20 46 21 35 1 66 1 69 1 3 0 28 -2 55 -6 l50 -6 -40 19 c-22 11 -50 20 -62 20 -34 1 -36 17 -3 31 34 14 31 30 -6 30 -33 0 -30 15 6 30 39 16 50 33 16 24 -35 -9 -33 2 7 26 49 31 104 27 255 -16 45 -13 20 14 -32 34 -129 49 -241 35 -363 -45 l-68 -44 -31 37 c-18 20 -56 82 -85 136 -58 109 -90 142 -128 135 -17 -4 -35 3 -54 19 -26 22 -37 24 -120 23 -51 0 -116 -7 -145 -15z m163 -112 c-8 -8 -25 10 -19 20 4 6 9 5 15 -3 4 -7 6 -15 4 -17z m-35 -6 c0 -3 -4 -8 -10 -11 -5 -3 -10 -1 -10 4 0 6 5 11 10 11 6 0 10 -2 10 -4z m279 -78 c56 -73 72 -88 85 -81 6 3 6 0 -1 -7 -10 -11 -23 -3 -70 41 -53 50 -70 71 -72 92 -2 20 21 2 58 -45z m-12 -48 c41 -31 79 -77 69 -87 -3 -3 -26 2 -52 11 -26 9 -79 16 -118 17 l-71 1 35 14 c55 22 64 29 75 52 12 28 13 28 62 -8z m313 -76 c-5 -13 -4 -26 3 -33 8 -8 8 -14 -2 -23 -10 -11 -11 -9 -6 7 6 16 5 17 -4 5 -6 -9 -7 -18 -1 -24 16 -16 11 -30 -5 -16 -8 7 -15 8 -15 3 0 -5 -20 -10 -45 -11 -25 -1 -45 2 -45 7 0 10 -58 27 -74 22 -5 -1 -16 1 -25 5 -16 7 -24 10 -38 13 -5 1 4 9 20 17 15 8 27 20 27 27 0 8 -4 6 -10 -3 -5 -8 -10 -10 -10 -4 0 6 6 17 14 23 11 9 19 5 39 -19 27 -32 50 -38 72 -17 37 35 55 46 56 34 0 -6 4 -2 9 11 8 19 12 21 29 10 15 -9 17 -17 11 -34z m-1000 -199 c-7 -9 -15 -13 -17 -11 -7 7 7 26 19 26 6 0 6 -6 -2 -15z m584 -954 c-3 -3 -15 6 -27 18 l-22 24 27 -19 c14 -10 24 -21 22 -23z m-19 -11 c3 -5 1 -10 -4 -10 -6 0 -11 5 -11 10 0 6 2 10 4 10 3 0 8 -4 11 -10z"/> <path d="M1455 1790 c6 -30 16 -40 12 -12 -2 12 -6 24 -10 28 -3 4 -4 -4 -2 -16z"/> <path d="M1280 1766 c0 -2 7 -7 16 -10 8 -3 12 -2 9 4 -6 10 -25 14 -25 6z"/> <path d="M1654 2085 c-7 -18 3 -35 22 -35 15 0 17 9 8 34 -8 20 -23 21 -30 1z"/> <path d="M730 1990 c0 -5 5 -10 10 -10 6 0 10 5 10 10 0 6 -4 10 -10 10 -5 0 -10 -4 -10 -10z"/> <path d="M1776 1949 c-34 -41 -34 -76 0 -85 29 -7 44 4 68 50 32 62 -22 90 -68 35z m20 -38 c-1 -18 -5 -27 -13 -24 -16 6 -17 25 -1 41 16 16 15 16 14 -17z"/> <path d="M2001 1931 c-15 -27 13 -51 35 -29 17 16 9 48 -12 48 -7 0 -18 -9 -23 -19z"/> <path d="M630 1929 c0 -5 5 -7 10 -4 6 3 10 8 10 11 0 2 -4 4 -10 4 -5 0 -10 -5 -10 -11z"/> <path d="M421 1882 c-28 -26 -51 -54 -51 -62 0 -8 26 11 57 42 70 70 65 87 -6 20z"/> <path d="M790 1841 c0 -10 19 -25 25 -20 1 2 -3 10 -11 17 -8 7 -14 8 -14 3z"/> <path d="M700 1830 c0 -5 4 -10 9 -10 6 0 13 5 16 10 3 6 -1 10 -9 10 -9 0 -16 -4 -16 -10z"/> <path d="M2280 1820 c-11 -11 -20 -26 -20 -34 0 -22 40 -66 60 -66 20 0 60 44 60 66 0 15 -47 54 -66 54 -8 0 -23 -9 -34 -20z m30 -10 c0 -5 -4 -10 -10 -10 -5 0 -10 5 -10 10 0 6 5 10 10 10 6 0 10 -4 10 -10z m36 -24 c3 -8 0 -23 -6 -33 -10 -16 -11 -16 -6 -1 3 10 0 20 -6 24 -6 4 -8 3 -4 -4 9 -15 -13 -27 -27 -13 -8 8 -6 15 9 26 24 18 33 19 40 1z"/> <path d="M345 1790 c-3 -5 -2 -10 4 -10 5 0 13 5 16 10 3 6 2 10 -4 10 -5 0 -13 -4 -16 -10z"/> <path d="M295 1781 c-3 -5 -2 -12 3 -15 5 -3 9 1 9 9 0 17 -3 19 -12 6z"/> <path d="M283 1718 c-29 -32 -43 -63 -123 -264 -88 -225 -91 -248 -15 -152 22 28 52 60 66 70 31 23 183 67 251 73 50 5 121 43 191 105 43 37 46 34 14 -18 -110 -175 -132 -333 -77 -546 50 -195 135 -341 274 -474 l76 -72 -39 0 c-27 0 -49 -8 -68 -23 -15 -13 -45 -27 -65 -30 -39 -6 -47 0 -26 21 33 33 -82 44 -142 14 -44 -22 -49 -47 -16 -81 21 -22 25 -34 20 -58 -5 -24 0 -37 23 -64 15 -19 33 -43 39 -54 30 -55 161 -78 286 -52 40 9 102 19 138 22 36 3 106 14 155 25 50 10 116 23 147 30 54 11 108 41 108 60 0 5 -10 18 -21 29 l-21 20 38 7 c22 4 57 16 79 27 22 11 69 30 105 42 138 48 179 75 91 60 -25 -4 -39 -11 -34 -17 3 -6 1 -8 -4 -5 -6 4 -36 -4 -68 -18 -31 -14 -54 -21 -50 -15 3 5 1 10 -4 10 -6 0 -11 -7 -11 -15 0 -9 -12 -18 -30 -22 -17 -3 -33 -10 -36 -14 -3 -5 -14 -4 -26 2 -39 21 -83 -47 -46 -72 14 -9 -2 -36 -25 -44 -27 -9 -172 -36 -207 -38 -14 -1 -32 -6 -39 -11 -8 -6 -44 -10 -80 -11 -37 -1 -79 -7 -94 -13 -35 -15 -40 -15 -32 -2 3 5 1 10 -4 10 -6 0 -11 -4 -11 -9 0 -23 -175 -31 -236 -11 -29 10 -33 14 -21 23 12 10 12 16 1 37 -8 15 -14 19 -14 10 0 -9 5 -21 12 -28 9 -9 7 -12 -9 -12 -17 0 -20 5 -15 22 3 13 1 19 -5 15 -6 -4 -17 1 -24 10 -10 11 -10 14 -2 9 9 -5 11 -2 7 7 -3 8 -13 14 -22 13 -18 -1 -23 30 -9 51 5 7 5 18 1 25 -5 7 -9 16 -9 20 0 3 -4 10 -9 15 -5 5 -6 2 -1 -6 6 -10 4 -12 -4 -7 -7 5 -10 14 -7 22 3 7 0 16 -5 20 -13 7 40 36 55 30 6 -2 3 -5 -7 -5 -10 -1 -15 -6 -12 -12 5 -7 15 -5 31 6 18 11 29 13 42 6 15 -10 15 -10 -3 -11 l-20 -1 20 -9 20 -9 -20 -1 -20 -1 20 -8 c11 -5 26 -6 34 -3 9 3 12 1 7 -6 -7 -11 14 -10 56 4 14 4 18 2 14 -5 -5 -7 -1 -8 9 -4 11 4 13 8 6 13 -8 4 -4 13 10 26 21 17 22 18 16 1 -4 -11 -3 -16 3 -12 6 3 10 13 10 21 0 9 11 14 35 14 19 0 35 5 35 11 0 5 4 8 8 5 5 -3 9 1 9 9 0 8 -4 12 -9 9 -4 -3 -9 0 -9 5 -1 6 -2 17 -3 24 -1 6 -7 11 -13 10 -14 -3 -73 63 -65 73 4 4 -1 4 -10 1 -10 -4 -18 -3 -18 2 0 5 -10 19 -23 32 -34 35 -88 120 -90 140 -1 10 -5 15 -11 12 -5 -4 -7 1 -3 11 4 9 3 15 -2 12 -12 -8 -71 130 -71 165 0 16 -4 29 -10 29 -5 0 -8 15 -6 34 1 19 -1 33 -5 30 -22 -13 -24 309 -3 325 5 3 23 38 38 78 16 40 33 70 39 66 5 -3 3 -9 -4 -15 -11 -8 -11 -9 1 -5 9 2 14 13 12 26 -2 13 4 31 13 41 41 46 -37 51 -84 6 -17 -17 -31 -26 -31 -20 0 5 -5 1 -11 -9 -6 -9 -15 -14 -21 -11 -7 5 -8 2 -3 -6 6 -10 4 -12 -8 -7 -10 4 -16 2 -14 -5 1 -5 -5 -12 -13 -13 -8 -2 -46 -11 -85 -20 -38 -9 -85 -17 -103 -18 -22 0 -29 -3 -20 -10 9 -6 4 -7 -14 -4 -16 2 -28 1 -28 -4 0 -4 -14 -10 -31 -14 -17 -4 -33 -13 -36 -22 -3 -8 -12 -12 -20 -9 -8 3 -12 2 -9 -2 3 -4 -3 -13 -13 -19 -15 -9 -12 3 13 62 30 70 32 73 60 68 18 -4 27 -2 23 4 -3 5 21 36 53 68 33 33 60 64 60 69 0 6 -30 -20 -68 -57 -37 -37 -71 -67 -76 -67 -19 0 5 76 45 141 42 71 49 107 12 67z m418 -161 c-10 -9 -11 -8 -5 6 3 10 9 15 12 12 3 -3 0 -11 -7 -18z m799 -1221 c0 -3 -4 -8 -10 -11 -5 -3 -10 -1 -10 4 0 6 5 11 10 11 6 0 10 -2 10 -4z"/> <path d="M2162 1723 c-6 -10 -6 -28 -1 -40 11 -29 54 -31 69 -4 13 25 13 27 -6 45 -21 21 -51 20 -62 -1z"/> <path d="M365 1690 c-3 -5 -1 -10 4 -10 6 0 11 5 11 10 0 6 -2 10 -4 10 -3 0 -8 -4 -11 -10z"/> <path d="M1670 1655 c0 -2 31 -23 69 -45 86 -51 168 -129 176 -167 4 -15 18 -54 31 -87 26 -62 26 -79 -1 -52 -24 23 -30 20 -12 -7 12 -19 13 -26 1 -41 -7 -11 -11 -23 -7 -29 3 -5 9 -3 14 4 6 10 9 8 9 -8 0 -13 -4 -23 -9 -23 -5 0 -7 -25 -6 -55 2 -30 -1 -55 -6 -55 -5 0 -9 -4 -9 -10 0 -5 7 -7 15 -4 13 5 14 2 6 -19 -7 -18 -7 -27 2 -31 9 -3 9 -5 0 -5 -7 -1 -13 -10 -13 -21 0 -13 -7 -20 -20 -20 -11 0 -20 -4 -20 -10 0 -5 7 -7 16 -3 14 5 15 3 5 -15 -6 -11 -11 -35 -11 -52 0 -18 -4 -29 -10 -25 -6 3 -15 -6 -20 -20 -6 -16 -17 -26 -27 -24 -32 3 -44 -1 -38 -11 4 -6 12 -7 18 -3 7 4 6 0 -2 -10 -12 -15 -11 -17 3 -17 9 0 16 -4 16 -10 0 -5 -7 -10 -16 -10 -8 0 -12 -4 -9 -10 3 -5 -1 -10 -9 -10 -9 0 -16 -4 -16 -10 0 -5 -12 -10 -27 -11 -16 0 -22 -3 -15 -6 6 -2 12 -11 12 -19 0 -8 -6 -11 -17 -7 -9 4 -14 2 -10 -4 10 -17 -68 -72 -105 -74 -19 -1 -17 -3 7 -8 17 -4 38 -4 48 1 10 5 28 6 40 3 17 -5 19 -4 7 4 -13 9 -11 14 10 33 14 13 28 22 33 20 5 -1 6 2 2 8 -3 5 -1 10 5 10 6 0 8 5 4 12 -4 7 -3 8 4 4 7 -4 12 -2 12 4 0 6 10 14 21 19 14 5 23 18 25 37 2 16 11 35 21 42 10 7 17 18 15 23 -1 6 2 8 7 5 11 -7 33 18 24 27 -3 4 -1 7 5 7 8 0 11 12 8 35 -3 20 0 35 6 35 5 0 8 7 4 15 -3 8 -1 15 4 15 6 0 10 9 10 20 0 11 5 20 11 20 5 0 7 5 4 10 -7 11 8 14 18 3 4 -3 -1 -12 -11 -19 -9 -7 -13 -16 -9 -21 5 -4 15 1 23 11 12 17 12 22 -3 39 -10 10 -18 36 -19 59 0 22 -7 44 -15 49 -19 12 -2 11 20 0 13 -7 18 -6 18 4 0 8 -5 13 -11 12 -6 -1 -13 11 -14 27 -3 28 -2 29 15 15 16 -12 17 -12 7 1 -6 8 -14 23 -18 34 -5 14 -2 17 9 12 11 -4 14 -2 8 7 -14 22 -12 39 4 33 8 -3 17 -6 19 -6 3 0 3 -4 -1 -9 -3 -6 3 -15 14 -20 17 -10 19 -20 17 -88 -2 -46 -11 -103 -24 -138 -11 -33 -23 -76 -27 -95 -15 -76 -28 -111 -42 -106 -10 4 -11 1 -3 -14 15 -28 12 -38 -5 -16 -16 21 -21 10 -6 -13 14 -21 -61 -148 -81 -138 -2 1 0 -2 4 -7 13 -17 -19 -34 -59 -33 -23 1 -39 -1 -37 -5 2 -4 0 -9 -6 -13 -5 -3 -10 0 -11 7 0 7 -5 1 -11 -15 -5 -15 -14 -24 -19 -21 -6 3 -5 12 3 22 12 15 11 16 -5 3 -9 -8 -15 -16 -13 -18 3 -3 -4 -14 -14 -25 -12 -14 -26 -18 -42 -14 -12 3 -17 3 -10 0 6 -3 12 -10 12 -15 0 -6 -4 -8 -9 -4 -6 3 -15 -4 -21 -15 -6 -11 -16 -17 -22 -14 -7 4 -8 3 -4 -4 12 -20 -32 -14 -44 5 -11 17 -11 17 -6 -1 8 -24 -10 -45 -32 -39 -23 6 -45 -37 -30 -58 8 -11 9 -10 4 4 -4 13 0 17 17 17 15 0 18 -3 10 -8 -10 -7 -10 -12 0 -26 12 -16 13 -15 11 14 -2 24 1 30 13 26 8 -3 17 -6 19 -6 3 0 3 -4 0 -9 -8 -12 21 -34 33 -27 6 4 7 14 4 24 -3 9 -2 14 2 9 5 -4 18 2 30 13 21 20 24 20 39 5 9 -9 16 -11 16 -5 0 6 4 9 8 6 5 -3 14 3 22 14 7 10 18 16 25 14 7 -3 20 6 29 20 9 15 25 26 35 26 10 0 24 6 30 14 7 8 20 13 29 11 20 -3 42 12 42 29 0 6 -5 4 -10 -4 -5 -8 -10 -10 -10 -5 0 18 18 38 28 31 6 -4 16 3 22 14 6 12 18 19 25 16 9 -3 12 0 9 9 -7 17 41 50 57 39 7 -4 9 -3 5 4 -3 6 1 17 9 25 8 9 15 20 15 26 0 6 6 10 13 8 6 -1 12 7 12 18 0 11 4 26 8 33 5 6 5 17 2 22 -3 6 -2 10 4 10 5 0 12 -6 15 -12 3 -7 3 -3 0 9 -5 23 10 62 30 75 8 5 7 8 -1 8 -7 0 -13 5 -13 11 0 5 5 7 10 4 6 -3 10 1 10 11 0 13 3 14 14 5 10 -9 17 -7 27 6 13 16 12 17 -2 5 -14 -10 -18 -10 -21 0 -6 16 1 40 11 34 4 -3 8 4 9 15 4 42 6 49 13 49 7 0 24 74 22 98 0 6 5 12 13 12 17 0 18 -31 2 -49 -11 -11 -10 -12 1 -6 11 6 13 3 8 -16 -4 -13 -7 -32 -7 -42 0 -10 -4 -16 -9 -12 -5 3 -13 0 -17 -6 -5 -8 -3 -9 6 -4 15 9 7 -23 -20 -77 -10 -20 -16 -39 -12 -44 4 -4 0 -5 -9 -1 -13 4 -16 1 -12 -14 3 -11 0 -19 -6 -19 -7 0 -10 -4 -7 -9 10 -15 -23 -81 -40 -81 -8 0 -12 -5 -9 -11 4 -6 -3 -21 -16 -35 -12 -13 -19 -24 -16 -24 6 0 -11 -34 -30 -59 -2 -3 -9 4 -17 14 -10 14 -15 15 -21 5 -5 -9 -4 -11 3 -6 7 4 12 4 13 -1 2 -19 8 -45 12 -49 8 -8 101 -22 116 -18 14 4 14 3 0 -7 -15 -11 -13 -15 15 -34 24 -17 35 -19 46 -11 13 9 13 9 3 -5 -7 -9 -11 -18 -8 -21 9 -9 -24 -30 -35 -23 -8 5 -7 12 2 23 11 15 11 15 -4 4 -11 -9 -18 -10 -23 -2 -3 5 -14 10 -23 9 -14 0 -13 -2 3 -9 20 -8 19 -9 -1 -9 -24 -1 -49 -25 -40 -39 7 -11 -52 -25 -67 -15 -5 3 -7 1 -4 -4 4 -7 -8 -11 -33 -11 -29 -1 -38 3 -33 11 4 7 -1 6 -10 -2 -14 -11 -25 -12 -57 -2 -27 8 -46 9 -58 2 -57 -32 182 -45 286 -16 176 50 180 185 6 185 l-63 0 53 84 c29 46 77 140 106 207 53 122 54 126 58 237 3 85 0 132 -13 185 l-17 71 26 19 c16 11 26 28 26 44 0 14 11 39 25 55 28 33 28 51 2 56 -22 4 -59 -35 -53 -56 4 -13 -2 -21 -24 -29 -27 -10 -30 -9 -38 16 -8 22 -10 17 -17 -40 -7 -66 -4 -106 17 -206 8 -39 8 -68 -1 -115 -13 -66 -17 -75 -86 -223 -24 -49 -46 -105 -50 -124 -9 -42 -28 -65 -86 -105 -26 -17 -46 -35 -46 -41 0 -5 -10 -15 -23 -22 -12 -6 -25 -15 -29 -20 -3 -5 -22 -21 -42 -36 -37 -28 -63 -22 -52 12 4 14 3 14 -10 -1 -13 -16 -27 -15 -27 3 0 6 43 22 65 23 6 1 14 6 18 11 5 6 6 0 4 -14 l-6 -23 25 23 c37 35 112 150 129 200 9 24 27 92 42 152 15 63 31 111 39 114 11 4 14 30 14 107 0 87 -4 108 -25 151 -13 28 -25 56 -25 63 0 6 -4 12 -10 12 -5 0 -10 6 -10 13 -1 17 -77 116 -146 189 -44 48 -63 61 -85 60 -15 0 -33 6 -40 14 -10 13 -49 20 -49 9z m615 -145 c-3 -5 -11 -10 -16 -10 -6 0 -7 5 -4 10 3 6 11 10 16 10 6 0 7 -4 4 -10z m-38 -86 c0 -7 -3 -12 -6 -10 -3 2 -12 -2 -19 -10 -7 -8 -9 -14 -5 -14 4 0 2 -5 -5 -12 -7 -7 -12 -20 -12 -30 0 -10 -4 -18 -8 -18 -13 0 -11 34 2 42 8 6 8 8 -1 8 -6 0 -10 8 -8 18 2 9 4 20 4 24 1 4 8 5 16 2 8 -4 15 -2 15 3 0 5 6 10 13 10 8 0 14 -6 14 -13z m-257 -76 c0 -5 -7 -3 -15 6 -8 8 -15 18 -15 22 0 3 7 1 15 -6 8 -7 15 -17 15 -22z m21 -50 c9 -17 9 -19 -7 -10 -10 5 -19 17 -20 26 -3 20 12 11 27 -16z m211 -75 c-2 -7 -9 -13 -14 -13 -6 0 -5 6 2 15 9 10 9 15 1 15 -6 0 -11 15 -10 33 l0 32 13 -35 c7 -19 10 -41 8 -47z m-327 -363 c3 -5 1 -10 -4 -10 -6 0 -11 5 -11 10 0 6 2 10 4 10 3 0 8 -4 11 -10z m285 -325 c13 -16 3 -20 -24 -9 -9 3 -13 10 -10 15 8 13 20 11 34 -6z m-450 -3 c0 -4 -5 -13 -12 -20 -18 -18 3 -15 23 4 9 8 20 11 23 6 3 -5 -12 -23 -34 -41 -22 -18 -40 -27 -40 -20 0 6 -6 9 -14 6 -8 -3 -17 2 -21 11 -3 9 -1 18 4 20 6 2 21 12 33 22 25 21 38 25 38 12z m134 0 c3 -5 -1 -9 -9 -9 -8 0 -12 4 -9 9 3 4 7 8 9 8 2 0 6 -4 9 -8z m-252 -74 c-7 -7 -12 -8 -12 -2 0 14 12 26 19 19 2 -3 -1 -11 -7 -17z m43 1 c6 -17 9 -19 16 -8 6 9 9 10 9 2 0 -18 -21 -27 -30 -13 -4 7 -12 10 -18 6 -6 -4 -8 2 -5 14 7 26 20 25 28 -1z m470 -26 c-22 -16 -32 -16 -40 -3 -7 11 35 31 49 22 5 -3 1 -11 -9 -19z m-527 7 c22 0 13 -20 -14 -30 -35 -14 -71 5 -53 26 7 9 21 13 33 10 12 -3 27 -6 34 -6z m-93 -20 c3 -5 -1 -10 -10 -10 -9 0 -13 5 -10 10 3 6 8 10 10 10 2 0 7 -4 10 -10z m70 -48 c-3 -3 -11 0 -18 7 -9 10 -8 11 6 5 10 -3 15 -9 12 -12z"/> <path d="M1680 490 c-12 -7 -10 -9 7 -7 12 0 19 5 17 9 -6 10 -6 10 -24 -2z"/> <path d="M1536 432 c-2 -4 4 -9 15 -9 10 -1 19 2 19 8 0 11 -27 12 -34 1z"/> <path d="M644 1639 c-12 -20 12 -31 27 -12 13 17 13 17 -5 3 -18 -14 -19 -13 -13 3 7 19 2 23 -9 6z"/> <path d="M407 1613 c-10 -9 -9 -23 2 -23 5 0 11 7 15 15 5 15 -5 20 -17 8z"/> <path d="M2340 1595 c0 -9 5 -15 11 -13 6 2 11 8 11 13 0 5 -5 11 -11 13 -6 2 -11 -4 -11 -13z"/> <path d="M348 1493 c7 -3 16 -2 19 1 4 3 -2 6 -13 5 -11 0 -14 -3 -6 -6z"/> <path d="M2350 1140 c0 -5 5 -10 10 -10 6 0 10 5 10 10 0 6 -4 10 -10 10 -5 0 -10 -4 -10 -10z"/> <path d="M2275 1100 c3 -5 10 -10 16 -10 5 0 9 5 9 10 0 6 -7 10 -16 10 -8 0 -12 -4 -9 -10z"/> <path d="M1985 1080 c-3 -5 -3 -10 2 -10 4 0 1 -5 -7 -11 -12 -8 -12 -10 -1 -7 8 2 15 12 17 21 3 19 -2 22 -11 7z"/> <path d="M383 1073 c-18 -7 -16 -52 3 -60 23 -9 51 23 38 44 -12 19 -23 24 -41 16z m32 -13 c3 -5 1 -10 -4 -10 -6 0 -11 5 -11 10 0 6 2 10 4 10 3 0 8 -4 11 -10z"/> <path d="M1906 1005 c-3 -8 -1 -15 4 -15 6 0 10 7 10 15 0 8 -2 15 -4 15 -2 0 -6 -7 -10 -15z"/> <path d="M2115 840 c-3 -6 1 -7 9 -4 18 7 21 14 7 14 -6 0 -13 -4 -16 -10z"/> <path d="M686 807 c3 -10 9 -15 12 -12 3 3 0 11 -7 18 -10 9 -11 8 -5 -6z"/> <path d="M1780 765 c-11 -13 -10 -14 4 -9 9 3 16 10 16 15 0 13 -6 11 -20 -6z"/> <path d="M2290 735 c0 -8 7 -15 15 -15 8 0 15 7 15 15 0 8 -7 15 -15 15 -8 0 -15 -7 -15 -15z"/> <path d="M500 725 c-10 -12 -10 -18 0 -30 18 -21 52 2 39 27 -12 22 -23 23 -39 3z"/> <path d="M886 717 c3 -10 9 -15 12 -12 3 3 0 11 -7 18 -10 9 -11 8 -5 -6z"/> <path d="M774 663 c2 -10 6 -17 10 -16 15 3 16 11 2 22 -12 10 -14 9 -12 -6z"/> <path d="M2155 670 c-8 -13 4 -32 16 -25 12 8 12 35 0 35 -6 0 -13 -4 -16 -10z"/> <path d="M399 633 c-26 -6 -41 -48 -27 -78 21 -47 81 -40 94 12 11 42 -24 75 -67 66z m51 -33 c0 -5 -4 -10 -10 -10 -5 0 -10 5 -10 10 0 6 5 10 10 10 6 0 10 -4 10 -10z m-20 -36 c0 -7 -8 -12 -19 -11 -11 1 -17 7 -16 17 2 8 4 19 4 24 1 13 31 -15 31 -30z"/> <path d="M1730 636 c0 -2 7 -7 16 -10 8 -3 12 -2 9 4 -6 10 -25 14 -25 6z"/> <path d="M974 622 c-9 -5 -8 -10 1 -19 11 -10 13 -9 12 7 -1 11 -1 20 -2 20 0 0 -5 -4 -11 -8z"/> <path d="M625 581 c-3 -5 -2 -12 3 -15 5 -3 9 1 9 9 0 17 -3 19 -12 6z"/> <path d="M546 544 c-8 -20 1 -34 20 -34 20 0 30 30 13 41 -20 12 -26 11 -33 -7z"/> <path d="M1900 530 c-6 -11 -8 -20 -6 -20 3 0 10 9 16 20 6 11 8 20 6 20 -3 0 -10 -9 -16 -20z"/> <path d="M1566 503 c-6 -14 -5 -15 5 -6 7 7 10 15 7 18 -3 3 -9 -2 -12 -12z"/> <path d="M635 260 c-3 -6 1 -7 9 -4 18 7 21 14 7 14 -6 0 -13 -4 -16 -10z"/> <path d="M718 231 c21 -52 63 -72 92 -46 9 8 20 12 25 8 4 -5 5 -2 1 5 -5 7 -1 12 11 13 10 0 13 3 6 6 -7 2 -13 11 -13 19 0 8 -3 13 -7 13 -19 -3 -34 2 -29 9 2 4 -13 7 -34 7 -21 0 -36 -3 -34 -7 8 -13 -11 -9 -25 5 -7 6 -4 -8 7 -32z m86 3 c29 -11 16 -24 -24 -24 -29 0 -40 4 -40 15 0 16 35 20 64 9z"/> <path d="M680 251 c0 -6 4 -13 10 -16 6 -3 7 1 4 9 -7 18 -14 21 -14 7z"/> <path d="M1375 250 c11 -5 27 -9 35 -9 9 0 8 4 -5 9 -11 5 -27 9 -35 9 -9 0 -8 -4 5 -9z"/> </g> </svg>